<svg xmlns="http://www.w3.org/2000/svg" xmlns:xlink="http://www.w3.org/1999/xlink" width="122" height="122">
  <defs>
    <circle id="a" cx="60" cy="60" r="60"/>
    <radialGradient id="b" cx="16.986%" cy="35.109%" r="141.967%" fx="16.986%" fy="35.109%">
      <stop offset="0%" stop-color="#3D5987"/>
      <stop offset="100%"/>
    </radialGradient>
    <circle id="c" cx="60.5" cy="60.5" r="54.5"/>
    <linearGradient id="d" x1="14.496%" x2="84.643%" y1="11.24%" y2="89.769%">
      <stop offset="0%" stop-color="#B595FD"/>
      <stop offset="100%" stop-color="#B372BD" stop-opacity="0"/>
    </linearGradient>
    <circle id="e" cx="60" cy="60" r="60"/>
    <radialGradient id="f" cx="52.101%" cy="30.594%" r="357.837%" fx="52.101%" fy="30.594%" gradientTransform="matrix(-.13636 0 0 -.25522 .592 .384)">
      <stop offset="0%"/>
      <stop offset="100%" stop-opacity=".002"/>
    </radialGradient>
    <filter id="g" width="119.4%" height="242.5%" x="-9.7%" y="-71.2%" filterUnits="objectBoundingBox">
      <feGaussianBlur in="SourceGraphic" stdDeviation="2.85"/>
    </filter>
    <linearGradient id="h" x1="0%" x2="106.582%" y1="50%" y2="50%">
      <stop offset="0%" stop-color="#5B79A2"/>
      <stop offset="100%" stop-color="#2E4469"/>
    </linearGradient>
    <linearGradient id="i" x1="0%" y1="50%" y2="50%">
      <stop offset="0%" stop-color="#5B79A2"/>
      <stop offset="100%" stop-color="#2E4469"/>
    </linearGradient>
    <linearGradient id="j" x1="50%" x2="50%" y1="100%" y2="0%">
      <stop offset="0%" stop-color="#D5C0F7" stop-opacity="0"/>
      <stop offset="100%" stop-color="#AA8CEB"/>
    </linearGradient>
    <radialGradient id="k" cx="52.47%" cy="59.521%" r="165.027%" fx="52.47%" fy="59.521%" gradientTransform="matrix(-.27273 0 0 -.86148 .668 1.108)">
      <stop offset="0%" stop-color="#010B1C"/>
      <stop offset="100%" stop-opacity=".002"/>
    </radialGradient>
    <filter id="l" width="177.7%" height="385%" x="-38.9%" y="-142.5%" filterUnits="objectBoundingBox">
      <feGaussianBlur in="SourceGraphic" stdDeviation="2.85"/>
    </filter>
    <linearGradient id="m" x1="0%" y1="50%" y2="50%">
      <stop offset="0%" stop-color="#5B79A2"/>
      <stop offset="100%" stop-color="#2E4469"/>
    </linearGradient>
    <linearGradient id="n" x1="14.645%" y1="53.058%" y2="50%">
      <stop offset="0%" stop-color="#2E4469"/>
      <stop offset="100%" stop-color="#2E4469" stop-opacity="0"/>
    </linearGradient>
    <linearGradient id="o" x1="14.645%" y1="50.157%" y2="50%">
      <stop offset="0%" stop-color="#57759E"/>
      <stop offset="100%" stop-color="#25395B"/>
    </linearGradient>
    <linearGradient id="p" x1="27.676%" x2="125.301%" y1="50%" y2="50%">
      <stop offset="0%" stop-color="#986DFF"/>
      <stop offset="100%" stop-color="#2E4469" stop-opacity=".303"/>
    </linearGradient>
    <linearGradient id="q" x1="49.634%" x2="54.801%" y1="14.605%" y2="103.634%">
      <stop offset="0%" stop-color="#5B79A2"/>
      <stop offset="100%" stop-color="#2E4469"/>
    </linearGradient>
    <linearGradient id="r" x1="50%" x2="50%" y1="0%" y2="100%">
      <stop offset="0%" stop-color="#56749D"/>
      <stop offset="100%" stop-color="#25395B"/>
    </linearGradient>
    <linearGradient id="s" x1="41.002%" x2="80.342%" y1="43.622%" y2="56.378%">
      <stop offset="0%" stop-color="#5B79A2"/>
      <stop offset="100%" stop-color="#2E4469"/>
    </linearGradient>
    <linearGradient id="t" x1="21.283%" x2="76.773%" y1="12.159%" y2="80.06%">
      <stop offset="0%" stop-color="#5B79A2"/>
      <stop offset="100%" stop-color="#2E4469"/>
    </linearGradient>
    <linearGradient id="u" x1="45.62%" x2="6.372%" y1="100%" y2="-42.525%">
      <stop offset="0%" stop-color="#B595FD"/>
      <stop offset="100%" stop-color="#B372BD" stop-opacity="0"/>
    </linearGradient>
    <linearGradient id="v" x1="68.141%" x2="50%" y1="100%" y2="0%">
      <stop offset="0%" stop-color="#9A77EB"/>
      <stop offset="100%" stop-color="#CB7DD7"/>
    </linearGradient>
    <filter id="w" width="200%" height="200%" x="-50%" y="-50%" filterUnits="objectBoundingBox">
      <feGaussianBlur in="SourceGraphic" stdDeviation="2"/>
    </filter>
    <linearGradient id="x" x1="68.141%" x2="50%" y1="95.351%" y2="4.649%">
      <stop offset="0%" stop-color="#9A77EB"/>
      <stop offset="100%" stop-color="#CB7DD7"/>
    </linearGradient>
  </defs>
  <g fill="none" fill-rule="evenodd" transform="translate(1 1)">
    <use fill="#000" fill-opacity=".152" xlink:href="#a"/>
    <use fill="url(#b)" xlink:href="#c"/>
    <use stroke="url(#d)" stroke-width="2" xlink:href="#e"/>
    <ellipse cx="60.098" cy="104.767" fill="url(#f)" filter="url(#g)" opacity=".783" rx="44" ry="6" transform="rotate(1 60.098 104.767)"/>
    <path fill="url(#h)" d="M52.934 14l-21.296 5.945A2.24 2.24 0 0 0 30 22.102v76.06a2.24 2.24 0 0 0 1.873 2.21l21.061 3.5V14z"/>
    <path fill="none" stroke="#2E4469" stroke-width=".672" d="M45.7 18.908l-12.293 3.251A1.904 1.904 0 0 0 31.99 24v71.846c0 .955.708 1.762 1.655 1.887l12.292 1.624a1.904 1.904 0 0 0 2.153-1.887V20.748a1.904 1.904 0 0 0-2.39-1.84z"/>
    <path stroke="url(#j)" stroke-width=".672" d="M45.7 18.908l-12.293 3.251A1.904 1.904 0 0 0 31.99 24v71.846c0 .955.708 1.762 1.655 1.887l12.292 1.624a1.904 1.904 0 0 0 2.153-1.887V20.748a1.904 1.904 0 0 0-2.39-1.84z"/>
    <ellipse cx="39.051" cy="94.192" fill="url(#k)" filter="url(#l)" opacity=".523" rx="11" ry="3" transform="rotate(1 39.05 94.192)"/>
    <path fill="url(#m)" d="M54.07 14l44.456.518a2.24 2.24 0 0 1 2.214 2.24v83.35a2.24 2.24 0 0 1-2.163 2.24L54.12 103.87a2.24 2.24 0 0 1-2.317-2.239V16.24A2.24 2.24 0 0 1 54.07 14z"/>
    <path fill="#25395B" d="M58.502 18.706l35.606.3a4 4 0 0 1 3.967 4v48.757a4 4 0 0 1-3.901 3.999l-35.606.883a4 4 0 0 1-4.1-3.998V22.706a4 4 0 0 1 4.034-4z"/>
    <path fill="url(#n)" d="M61.275 22.95l30 .056a2 2 0 0 1 1.996 2v5.776a2 2 0 0 1-1.989 2l-30 .165a2 2 0 0 1-2.01-2V24.95a2 2 0 0 1 2.003-2z"/>
    <path fill="url(#o)" d="M62.273 26.949l28.022.012a.977.977 0 0 1 0 1.954l-28.022.034a1 1 0 0 1-1.002-1 1 1 0 0 1 1.002-1z" transform="matrix(1 0 0 -1 0 55.898)"/>
    <path fill="url(#n)" d="M61.275 36l30 .057a2 2 0 0 1 1.996 2v5.776a2 2 0 0 1-1.989 2l-30 .165a2 2 0 0 1-2.01-2V38a2 2 0 0 1 2.003-2z"/>
    <path fill="url(#p)" d="M62.273 40l28.022.012a.977.977 0 0 1 0 1.954L62.273 42a1 1 0 0 1-1.002-1 1 1 0 0 1 1.002-1z"/>
    <path fill="url(#n)" d="M61.275 49l30 .057a2 2 0 0 1 1.996 2v5.776a2 2 0 0 1-1.989 2l-30 .165a2 2 0 0 1-2.01-2V51a2 2 0 0 1 2.003-2z"/>
    <path fill="url(#o)" d="M62.273 53l28.022.012a.977.977 0 0 1 0 1.954L62.273 55a1 1 0 0 1-1.002-1 1 1 0 0 1 1.002-1z"/>
    <path fill="url(#n)" d="M61.275 62l30 .057a2 2 0 0 1 1.996 2v5.776a2 2 0 0 1-1.989 2l-30 .165a2 2 0 0 1-2.01-2V64a2 2 0 0 1 2.003-2z"/>
    <path fill="url(#o)" d="M62.273 66l28.022.012a.977.977 0 0 1 0 1.954L62.273 68a1 1 0 0 1-1.002-1 1 1 0 0 1 1.002-1z"/>
    <path fill="#25395B" d="M40.732 24.036l4.348.808a1 1 0 0 1 .817.983v66.675a1 1 0 0 1-.87.991l-4.295.565V24.036z"/>
    <path fill="url(#q)" d="M40.15 24.085l-5.52 1.563A2.24 2.24 0 0 0 33 27.804v63.509a2.24 2.24 0 0 0 2.036 2.23l5.52.505A2.24 2.24 0 0 0 43 91.818V26.24a2.24 2.24 0 0 0-2.85-2.155z"/>
    <path fill="#25395B" d="M34.275 28.646l6.457-1.697v2.382l-6.121 1.353-.336-2.038zm0 4.051L40.732 31v2.382l-6.121 1.353-.336-2.038zm0 4L40.732 35v2.382l-6.121 1.353-.336-2.038zM34 83l8 .303v2.382l-7.584-.647L34 83zm0 5l8 .303v2.382l-7.584-.647L34 88zm1.076-19c-.993 1.185-.848 1.776 0 2.787.565.675 1.663.877 3.295.606.42-.732.629-1.464.629-2.196 0-.733-.21-1.465-.629-2.197-1.535-.123-2.634.21-3.295 1z"/>
    <path stroke="url(#r)" d="M29.478 70.197c-4.562.045-8.508 4.213-6.522 12.803 1.985 8.59-.734 15.589-1.136 16.006"/>
    <path fill="url(#s)" d="M28.847 69.482v1.429h4v-1.429z"/>
    <path fill="url(#t)" d="M33.123 68c-1.072 1.185-.916 3.382 0 4.393.61.675 1.934.675 3.973 0 .452-.732.679-1.464.679-2.196 0-.733-.227-1.465-.68-2.197-1.934-.79-3.258-.79-3.972 0z"/>
    <path fill="#25395B" d="M76.812 89.705c.735-.014.88-.147.905-.8.007-.189-.073-.26-.256-.257-.263.005-.527.012-.79.009-.151-.002-.232.065-.263.2-.049.212-.092.425-.147.636-.046.178.028.233.202.219.116-.01.232-.006.349-.007zm-2.727 2.788c-.006-.093-.035-.19-.014-.277.348-1.468.704-2.934 1.052-4.402.04-.172.11-.257.307-.259 1.056-.01 2.112-.031 3.168-.045.107-.002.217.012.323.031.37.068.605.299.556.656-.06.44-.167.882-.313 1.304-.134.388-.48.589-.913.681.05.034.072.06.1.065.468.087.544.453.476.807-.071.369-.12.74-.191 1.109-.018.089-.083.169-.126.253l-1.397.024c-.02-.072-.063-.148-.055-.218.044-.386.105-.77.15-1.156.022-.187-.06-.301-.276-.298a22.68 22.68 0 0 1-.742-.001c-.168-.003-.249.066-.283.228-.087.403-.185.802-.29 1.2-.024.097-.088.183-.135.274l-1.397.024zm6.329-.113c-.663-.234-.822-.422-.802-1.127a6.65 6.65 0 0 1 .772-2.984c.304-.568.789-.865 1.464-.867.66-.001 1.32-.023 1.979-.029.146-.001.295.015.439.042.276.051.49.212.516.48.033.332.006.67-.021 1.005-.005.054-.143.135-.223.14-.356.021-.714.017-1.07.026-.152.003-.202-.056-.192-.205.018-.267-.04-.332-.307-.336a6.845 6.845 0 0 0-.883.028c-.107.012-.256.104-.295.196a6.958 6.958 0 0 0-.526 2.247c-.013.179.074.243.247.239.233-.006.466-.005.699-.01.49-.01.63-.133.705-.649-.271.005-.539 0-.805.017-.2.012-.274-.048-.22-.245.05-.18.085-.365.123-.549.031-.153.11-.234.284-.236a193.26 193.26 0 0 0 2.119-.036c.175-.004.243.051.194.228-.103.37-.179.745-.294 1.11-.227.714-.619 1.289-1.434 1.472l-2.469.043zm-9.19-.997v-.002c.147-.003.295-.01.442-.007.168.003.296-.064.336-.22.183-.717.36-1.436.529-2.156.04-.17-.062-.25-.236-.248-.271.003-.543.011-.814.01-.234-.002-.38.102-.44.318-.105.367-.216.733-.308 1.104-.075.305-.129.615-.185.924-.035.191.031.304.258.286.139-.012.279-.007.418-.01zm-1.331 1.183c-.045-.01-.09-.026-.135-.032-.556-.078-.814-.313-.796-.863.016-.52.073-1.05.204-1.553a8.806 8.806 0 0 1 .605-1.62c.278-.574.78-.87 1.459-.866.644.004 1.288-.024 1.933-.027.614-.003.89.235.945.817.074.786-.138 1.533-.367 2.274-.152.49-.344.963-.707 1.355a1.337 1.337 0 0 1-.866.436c-.06.007-.12.028-.18.043l-2.095.036zm15.069-.261c-.008-.092-.04-.19-.021-.277.321-1.463.654-2.923.971-4.387.05-.234.153-.314.403-.317 1.441-.014 2.882-.045 4.324-.068.097-.002.195.022.293.035l.002.09c-.554.687-1.262 1.067-2.183 1.04-.325-.008-.652.01-.978.015-.496.009-.496.009-.59.48-.059.288-.054.295.246.29.62-.01 1.241-.023 1.862-.032.265-.004.28.013.229.27-.037.184-.09.366-.115.55-.026.188-.128.25-.314.251a94.5 94.5 0 0 0-1.653.028c-.623.014-.521-.068-.662.528-.072.305-.061.317.267.311l2.048-.035c.34-.006.345 0 .274.327-.042.191-.078.383-.13.57-.026.091-.084.173-.127.259l-4.146.072zm-21.92.205c.05-.415.319-.59.72-.675.311-.066.487-.309.564-.603.174-.66.342-1.322.506-1.985.077-.309-.004-.48-.312-.584a4.654 4.654 0 0 0-.767-.172c-.159-.025-.199-.09-.16-.227.169-.585.072-.494.624-.505 1.652-.032 3.305-.059 4.957-.087l.315-.006c-.024.09-.029.162-.063.218-.16.266-.318.534-.5.785a.412.412 0 0 1-.284.135c-.62.023-1.24.038-1.861.034-.242-.002-.357.086-.395.308-.023.14-.066.277-.1.416-.062.248-.046.269.226.265.38-.004.76-.007 1.14-.021.199-.008.274.047.21.247a5.835 5.835 0 0 0-.149.59c-.031.15-.114.211-.274.211-.403 0-.806.02-1.21.016-.191-.002-.281.077-.322.25-.098.416-.201.831-.311 1.244-.026.099-.085.19-.129.283l-2.422.043-.003-.18z"/>
    <path stroke="url(#u)" stroke-width="2" d="M22.344 14L13.5 57l26.54 6 19.231-21"/>
    <circle cx="14" cy="57" r="2.667" fill="url(#v)" transform="rotate(129 14 57)"/>
    <path fill="#FFF" fill-opacity=".2" d="M13.559 54.518a2.54 2.54 0 1 1 .526 5.001 2.54 2.54 0 0 0-.526-5.001z"/>
    <circle cx="39.5" cy="62.5" r="3.5" fill="url(#v)" transform="rotate(129 39.5 62.5)"/>
    <path fill="#FFF" fill-opacity=".2" d="M38.92 59.243a3.333 3.333 0 1 1 .69 6.564 3.333 3.333 0 0 0-.69-6.564z"/>
    <circle cx="60" cy="41" r="6" fill="#BC5AEC" filter="url(#w)" transform="rotate(129 60 41)"/>
    <ellipse cx="59.685" cy="41.389" fill="url(#x)" rx="3.5" ry="3.333" transform="rotate(129 59.685 41.389)"/>
    <path fill="#FFF" fill-opacity=".2" d="M59.199 38.206c.96-.264 2.005-.091 2.812.562 1.363 1.104 1.528 3.158.37 4.589a3.386 3.386 0 0 1-2.665 1.273 3.429 3.429 0 0 0 1.752-1.155c1.158-1.43.993-3.485-.37-4.588a3.063 3.063 0 0 0-1.9-.68z"/>
    <path fill="#FFF" d="M97.487 20.918L55.461 75.284a3.984 3.984 0 0 1-.993-2.637V22.706a4 4 0 0 1 4.034-4l35.606.3a3.998 3.998 0 0 1 3.38 1.912z" opacity=".04"/>
  </g>
</svg>
