<svg xmlns="http://www.w3.org/2000/svg" xmlns:xlink="http://www.w3.org/1999/xlink" width="122" height="122"><defs><circle id="a" cx="60" cy="60" r="60"/><radialGradient id="b" cx="52.436%" cy="42.955%" r="187.35%" fx="52.436%" fy="42.955%" gradientTransform="matrix(-.26045 0 0 -.25522 .66 .54)"><stop offset="0%"/><stop offset="100%" stop-opacity=".002"/></radialGradient><linearGradient id="e" x1="24.379%" x2="84.171%" y1="5.536%" y2="97.907%"><stop offset="0%" stop-color="#76E1FF"/><stop offset="100%" stop-color="#637BFF" stop-opacity="0"/></linearGradient><circle id="d" cx="60" cy="60" r="60"/><linearGradient id="g" x1="0%" y1="50%" y2="50%"><stop offset="0%" stop-color="#5B79A2"/><stop offset="100%" stop-color="#2E4469"/></linearGradient><linearGradient id="h" x1="-24.308%" y1="-161.748%" y2="17.569%"><stop offset="0%" stop-color="#5B79A2"/><stop offset="100%" stop-color="#2E4469"/></linearGradient><linearGradient id="j" x1="51.53%" x2="15.735%" y1="-164.307%" y2="83.311%"><stop offset="0%" stop-color="#5B79A2"/><stop offset="100%" stop-color="#2E4469"/></linearGradient><ellipse id="i" cx="35" cy="51.977" rx="27.329" ry="40.532"/><linearGradient id="k" x1="67.252%" x2="15.826%" y1="22.034%" y2="163.626%"><stop offset="0%" stop-color="#76E1FF"/><stop offset="100%" stop-color="#637BFF" stop-opacity="0"/></linearGradient><linearGradient id="m" x1="-.623%" x2="83.7%" y1="30.415%" y2="155.245%"><stop offset="0%" stop-color="#76E1FF"/><stop offset="100%" stop-color="#76E1FF" stop-opacity="0"/></linearGradient><linearGradient id="n" x1="5.749%" y1="30.559%" y2="90.896%"><stop offset="0%" stop-color="#76E1FF"/><stop offset="100%" stop-color="#637BFF" stop-opacity="0"/></linearGradient><circle id="o" cx="60" cy="60" r="60"/><circle id="q" cx="60" cy="60" r="60"/><ellipse id="s" cx="23" cy="34.398" rx="22.644" ry="33.843"/><linearGradient id="u" x1="50%" x2="50%" y1="0%" y2="97.483%"><stop offset="0%" stop-color="#21C8F6"/><stop offset="100%" stop-color="#637BFF"/></linearGradient><path id="v" d="M12.51 65.116C5.093 59.559 0 48.089 0 34.843 0 16.152 10.138 1 22.644 1c7.418 0 14.003 5.33 18.133 13.57-3.049-2.285-6.49-3.57-10.133-3.57C18.138 11 8 26.152 8 44.843c0 7.604 1.678 14.622 4.51 20.273z"/><filter id="w" width="220%" height="220%" x="-60%" y="-60%" filterUnits="objectBoundingBox"><feGaussianBlur in="SourceGraphic" stdDeviation="2"/></filter></defs><g transform="translate(1 1)" fill="none" fill-rule="evenodd"><mask id="c" fill="#fff"><use xlink:href="#a"/></mask><use fill="#000" fill-opacity=".152" xlink:href="#a"/><ellipse cx="59.316" cy="111.94" fill="url(#b)" mask="url(#c)" opacity=".298" rx="32.175" ry="8.38" transform="rotate(1 59.316 111.94)"/><mask id="f" fill="#fff"><use xlink:href="#d"/></mask><use stroke="url(#e)" xlink:href="#d"/><g mask="url(#f)"><g transform="translate(25 8)"><ellipse cx="35" cy="51.5" fill="url(#g)" rx="35" ry="51.5"/><ellipse cx="34.397" cy="50.901" fill="url(#h)" stroke="#2E4469" stroke-width="1.14" rx="29.569" ry="43.715"/><mask id="l" fill="#fff"><use xlink:href="#i"/></mask><use fill="url(#j)" opacity=".6" xlink:href="#i"/><path stroke="url(#k)" stroke-width="2.4" d="M32.732 94.929l-21.68-71.455" mask="url(#l)" opacity=".189"/><path fill="#76E2FF" fill-rule="nonzero" d="M29.69 38.114H15.569c-.6 0-1.086-.488-1.086-1.092 0-.604.485-1.092 1.086-1.092h14.12c.601 0 1.087.488 1.087 1.092 0 .604-.486 1.092-1.086 1.092z" mask="url(#l)"/><path fill="url(#m)" fill-rule="nonzero" d="M44.897 38.114H34.034c-.6 0-1.086-.488-1.086-1.092 0-.604.486-1.092 1.086-1.092h10.863c.6 0 1.086.488 1.086 1.092 0 .604-.486 1.092-1.086 1.092z" mask="url(#l)"/><path fill="#76E2FF" fill-rule="nonzero" d="M51.414 38.114H49.24c-.6 0-1.086-.488-1.086-1.092 0-.604.486-1.092 1.086-1.092h2.173c.6 0 1.086.488 1.086 1.092 0 .604-.486 1.092-1.086 1.092zm5.431 4.368H40.552c-.6 0-1.086-.488-1.086-1.092 0-.604.485-1.092 1.086-1.092h16.293c.6 0 1.086.488 1.086 1.092 0 .604-.485 1.092-1.086 1.092zm-20.638 0H21c-.6 0-1.086-.488-1.086-1.092 0-.604.485-1.092 1.086-1.092h15.207c.6 0 1.086.488 1.086 1.092 0 .604-.485 1.092-1.086 1.092zm-19.552 0H15.57c-.6 0-1.086-.488-1.086-1.092 0-.604.485-1.092 1.086-1.092h1.086c.6 0 1.086.488 1.086 1.092 0 .604-.485 1.092-1.086 1.092z" mask="url(#l)"/><path fill="url(#m)" fill-rule="nonzero" d="M25.345 46.85h-9.776c-.6 0-1.086-.488-1.086-1.092 0-.604.485-1.092 1.086-1.092h9.776c.6 0 1.086.488 1.086 1.092 0 .604-.486 1.092-1.086 1.092z" mask="url(#l)"/><path fill="#76E2FF" fill-rule="nonzero" d="M31.862 46.85H29.69a1.089 1.089 0 0 1-1.087-1.092c0-.604.486-1.092 1.087-1.092h2.172c.6 0 1.086.488 1.086 1.092 0 .604-.485 1.092-1.086 1.092z" mask="url(#l)"/><path fill="url(#m)" fill-rule="nonzero" d="M51.414 46.85H36.207c-.6 0-1.086-.488-1.086-1.092 0-.604.485-1.092 1.086-1.092h15.207c.6 0 1.086.488 1.086 1.092 0 .604-.486 1.092-1.086 1.092z" mask="url(#l)"/><path fill="#76E2FF" fill-rule="nonzero" d="M29.69 51.218H15.569c-.6 0-1.086-.488-1.086-1.092 0-.604.485-1.092 1.086-1.092h14.12c.601 0 1.087.488 1.087 1.092 0 .604-.486 1.092-1.086 1.092zm15.207 0H34.034c-.6 0-1.086-.488-1.086-1.092 0-.604.486-1.092 1.086-1.092h10.863c.6 0 1.086.488 1.086 1.092 0 .604-.486 1.092-1.086 1.092zm4.344 4.368h-8.69c-.6 0-1.085-.488-1.085-1.092 0-.604.485-1.092 1.086-1.092h8.69c.6 0 1.086.488 1.086 1.092 0 .604-.486 1.092-1.087 1.092z" mask="url(#l)"/><path fill="url(#m)" fill-rule="nonzero" d="M36.207 55.586H21c-.6 0-1.086-.488-1.086-1.092 0-.604.485-1.092 1.086-1.092h15.207c.6 0 1.086.488 1.086 1.092 0 .604-.485 1.092-1.086 1.092z" mask="url(#l)"/><path fill="#76E2FF" fill-rule="nonzero" d="M16.655 55.586H15.57c-.6 0-1.086-.488-1.086-1.092 0-.604.485-1.092 1.086-1.092h1.086c.6 0 1.086.488 1.086 1.092 0 .604-.485 1.092-1.086 1.092zm8.69 4.368h-9.776c-.6 0-1.086-.488-1.086-1.092 0-.604.485-1.092 1.086-1.092h9.776c.6 0 1.086.488 1.086 1.092 0 .604-.486 1.092-1.086 1.092zm6.517 0H29.69a1.089 1.089 0 0 1-1.087-1.092c0-.604.486-1.092 1.087-1.092h2.172c.6 0 1.086.488 1.086 1.092 0 .604-.485 1.092-1.086 1.092zm20.638 0H36.207c-.6 0-1.086-.488-1.086-1.092 0-.604.485-1.092 1.086-1.092H52.5c.6 0 1.086.488 1.086 1.092 0 .604-.485 1.092-1.086 1.092zm-22.81 4.368H15.569c-.6 0-1.086-.488-1.086-1.092 0-.604.485-1.092 1.086-1.092h14.12c.601 0 1.087.488 1.087 1.092 0 .604-.486 1.092-1.086 1.092zm15.207 0H34.034c-.6 0-1.086-.488-1.086-1.092 0-.604.486-1.092 1.086-1.092h10.863c.6 0 1.086.488 1.086 1.092 0 .604-.486 1.092-1.086 1.092zm11.948 0H49.24c-.6 0-1.086-.488-1.086-1.092 0-.604.486-1.092 1.086-1.092h7.604c.6 0 1.086.488 1.086 1.092 0 .604-.485 1.092-1.086 1.092zM44.897 68.69h-4.345c-.6 0-1.086-.488-1.086-1.092 0-.604.485-1.092 1.086-1.092h4.345c.6 0 1.086.488 1.086 1.092 0 .604-.486 1.092-1.086 1.092z" mask="url(#l)"/><path fill="url(#m)" fill-rule="nonzero" d="M36.207 68.69H21c-.6 0-1.086-.488-1.086-1.092 0-.604.485-1.092 1.086-1.092h15.207c.6 0 1.086.488 1.086 1.092 0 .604-.485 1.092-1.086 1.092z" mask="url(#l)"/><path fill="#76E2FF" fill-rule="nonzero" d="M16.655 68.69H15.57c-.6 0-1.086-.488-1.086-1.092 0-.604.485-1.092 1.086-1.092h1.086c.6 0 1.086.488 1.086 1.092 0 .604-.485 1.092-1.086 1.092z" mask="url(#l)"/><path fill="url(#m)" fill-rule="nonzero" d="M25.345 73.058h-9.776c-.6 0-1.086-.488-1.086-1.092 0-.604.485-1.092 1.086-1.092h9.776c.6 0 1.086.488 1.086 1.092 0 .604-.486 1.092-1.086 1.092z" mask="url(#l)"/><path fill="#76E2FF" fill-rule="nonzero" d="M31.862 73.058H29.69a1.089 1.089 0 0 1-1.087-1.092c0-.604.486-1.092 1.087-1.092h2.172c.6 0 1.086.488 1.086 1.092 0 .604-.485 1.092-1.086 1.092zm11.948 0h-7.603c-.6 0-1.086-.488-1.086-1.092 0-.604.485-1.092 1.086-1.092h7.603c.601 0 1.087.488 1.087 1.092 0 .604-.486 1.092-1.087 1.092z" mask="url(#l)"/><path fill="url(#m)" fill-rule="nonzero" d="M49.241 73.058h-1.086c-.6 0-1.086-.488-1.086-1.092 0-.604.485-1.092 1.086-1.092h1.086c.601 0 1.087.488 1.087 1.092 0 .604-.486 1.092-1.087 1.092z" mask="url(#l)"/><ellipse cx="35" cy="51.977" stroke="url(#n)" stroke-width=".96" mask="url(#l)" rx="27.329" ry="40.532"/></g></g><g mask="url(#f)"><mask id="p" fill="#fff"><use xlink:href="#o"/></mask><use fill="#000" fill-opacity=".152" xlink:href="#o"/><ellipse cx="59.316" cy="103.94" fill="url(#b)" mask="url(#p)" opacity=".298" rx="32.175" ry="8.38" transform="rotate(1 59.316 103.94)"/><mask id="r" fill="#fff"><use xlink:href="#q"/></mask><use stroke="url(#e)" xlink:href="#q"/><ellipse cx="59.5" cy="59" fill="url(#g)" mask="url(#r)" rx="29" ry="43"/><ellipse cx="59.5" cy="59.5" fill="url(#h)" stroke="#2E4469" stroke-width=".95" mask="url(#r)" rx="24.5" ry="36.5"/><g mask="url(#r)"><g transform="translate(37 26)"><mask id="t" fill="#fff"><use xlink:href="#s"/></mask><use fill="url(#j)" opacity=".6" xlink:href="#s"/><path stroke="url(#k)" stroke-width="2" d="M21.121 70.26L3.157 10.6" mask="url(#t)" opacity=".192"/><use fill="url(#u)" opacity=".168" xlink:href="#v"/></g></g><path fill="#76E2FF" fill-rule="nonzero" d="M55.6 48.824H43.9a.905.905 0 0 1-.9-.912c0-.504.402-.912.9-.912h11.7c.498 0 .9.408.9.912a.905.905 0 0 1-.9.912z" mask="url(#r)"/><path fill="url(#m)" fill-rule="nonzero" d="M68.2 48.824h-9a.905.905 0 0 1-.9-.912c0-.504.402-.912.9-.912h9c.498 0 .9.408.9.912a.905.905 0 0 1-.9.912z" mask="url(#r)"/><g mask="url(#r)"><g transform="translate(12 19)"><path stroke="url(#k)" stroke-width="2" d="M21.462 98.99L4.449 19.431 26.318 3.557 42.534 28.43"/><circle cx="25.5" cy="3.5" r="3.5" fill="url(#u)"/><path fill="#FFF" fill-opacity=".2" d="M23.333 6A3.333 3.333 0 1 1 28 1.333 3.333 3.333 0 0 0 23.333 6z"/><circle cx="4.5" cy="19" r="4" fill="url(#u)"/><path fill="#FFF" fill-opacity=".2" d="M2.024 21.857a3.81 3.81 0 1 1 5.334-5.334 3.81 3.81 0 0 0-5.334 5.334z"/><circle cx="44" cy="29" r="3" fill="url(#u)"/><circle cx="43" cy="29" r="5" fill="#328AF1" filter="url(#w)"/><path fill="#FFF" fill-opacity=".2" d="M42.143 31.143a2.857 2.857 0 1 1 4-4 2.857 2.857 0 0 0-4 4z"/></g></g><path fill="#76E2FF" fill-rule="nonzero" d="M73.6 48.824h-1.8a.905.905 0 0 1-.9-.912c0-.504.402-.912.9-.912h1.8c.498 0 .9.408.9.912a.905.905 0 0 1-.9.912zm4.5 3.646H64.6a.905.905 0 0 1-.9-.911c0-.504.402-.912.9-.912h13.5c.498 0 .9.408.9.912a.905.905 0 0 1-.9.912zm-17.1 0H48.4a.905.905 0 0 1-.9-.911c0-.504.402-.912.9-.912H61c.498 0 .9.408.9.912a.905.905 0 0 1-.9.912zm-16.2 0h-.9a.905.905 0 0 1-.9-.911c0-.504.402-.912.9-.912h.9c.498 0 .9.408.9.912a.905.905 0 0 1-.9.912z" mask="url(#r)"/><path fill="url(#m)" fill-rule="nonzero" d="M52 56.118h-8.1a.905.905 0 0 1-.9-.912c0-.504.402-.912.9-.912H52c.498 0 .9.408.9.912a.905.905 0 0 1-.9.912z" mask="url(#r)"/><path fill="#76E2FF" fill-rule="nonzero" d="M57.4 56.118h-1.8a.905.905 0 0 1-.9-.912c0-.504.402-.912.9-.912h1.8c.498 0 .9.408.9.912a.905.905 0 0 1-.9.912z" mask="url(#r)"/><path fill="url(#m)" fill-rule="nonzero" d="M73.6 56.118H61a.905.905 0 0 1-.9-.912c0-.504.402-.912.9-.912h12.6c.498 0 .9.408.9.912a.905.905 0 0 1-.9.912z" mask="url(#r)"/><path fill="#76E2FF" fill-rule="nonzero" d="M55.6 59.765H43.9a.905.905 0 0 1-.9-.912c0-.504.402-.912.9-.912h11.7c.498 0 .9.408.9.912a.905.905 0 0 1-.9.912zm12.6 0h-9a.905.905 0 0 1-.9-.912c0-.504.402-.912.9-.912h9c.498 0 .9.408.9.912a.905.905 0 0 1-.9.912zm3.6 3.647h-7.2a.905.905 0 0 1-.9-.912c0-.504.402-.912.9-.912h7.2c.498 0 .9.408.9.912a.905.905 0 0 1-.9.912z" mask="url(#r)"/><path fill="url(#m)" fill-rule="nonzero" d="M61 63.412H48.4a.905.905 0 0 1-.9-.912c0-.504.402-.912.9-.912H61c.498 0 .9.408.9.912a.905.905 0 0 1-.9.912z" mask="url(#r)"/><path fill="#76E2FF" fill-rule="nonzero" d="M44.8 63.412h-.9a.905.905 0 0 1-.9-.912c0-.504.402-.912.9-.912h.9c.498 0 .9.408.9.912a.905.905 0 0 1-.9.912zm7.2 3.647h-8.1a.905.905 0 0 1-.9-.912c0-.504.402-.912.9-.912H52c.498 0 .9.408.9.912a.905.905 0 0 1-.9.912zm5.4 0h-1.8a.905.905 0 0 1-.9-.912c0-.504.402-.912.9-.912h1.8c.498 0 .9.408.9.912a.905.905 0 0 1-.9.912zm17.1 0H61a.905.905 0 0 1-.9-.912c0-.504.402-.912.9-.912h13.5c.498 0 .9.408.9.912a.905.905 0 0 1-.9.912zm-18.9 3.647H43.9a.905.905 0 0 1-.9-.912c0-.504.402-.912.9-.912h11.7c.498 0 .9.408.9.912a.905.905 0 0 1-.9.912zm12.6 0h-9a.905.905 0 0 1-.9-.912c0-.504.402-.912.9-.912h9c.498 0 .9.408.9.912a.905.905 0 0 1-.9.912zm9.9 0h-6.3a.905.905 0 0 1-.9-.912c0-.504.402-.912.9-.912h6.3c.498 0 .9.408.9.912a.905.905 0 0 1-.9.912zm-9.9 3.647h-3.6a.905.905 0 0 1-.9-.912c0-.504.402-.912.9-.912h3.6c.498 0 .9.408.9.912a.905.905 0 0 1-.9.912z" mask="url(#r)"/><path fill="url(#m)" fill-rule="nonzero" d="M61 74.353H48.4a.905.905 0 0 1-.9-.912c0-.504.402-.912.9-.912H61c.498 0 .9.408.9.912a.905.905 0 0 1-.9.912z" mask="url(#r)"/><path fill="#76E2FF" fill-rule="nonzero" d="M44.8 74.353h-.9a.905.905 0 0 1-.9-.912c0-.504.402-.912.9-.912h.9c.498 0 .9.408.9.912a.905.905 0 0 1-.9.912z" mask="url(#r)"/><path fill="url(#m)" fill-rule="nonzero" d="M52 78h-8.1a.905.905 0 0 1-.9-.912c0-.504.402-.912.9-.912H52c.498 0 .9.408.9.912A.905.905 0 0 1 52 78z" mask="url(#r)"/><path fill="#76E2FF" fill-rule="nonzero" d="M57.4 78h-1.8a.905.905 0 0 1-.9-.912c0-.504.402-.912.9-.912h1.8c.498 0 .9.408.9.912a.905.905 0 0 1-.9.912zm9.9 0H61a.905.905 0 0 1-.9-.912c0-.504.402-.912.9-.912h6.3c.498 0 .9.408.9.912a.905.905 0 0 1-.9.912z" mask="url(#r)"/><path fill="url(#m)" fill-rule="nonzero" d="M71.8 78h-.9a.905.905 0 0 1-.9-.912c0-.504.402-.912.9-.912h.9c.498 0 .9.408.9.912a.905.905 0 0 1-.9.912z" mask="url(#r)"/><ellipse cx="60" cy="60.398" stroke="url(#n)" mask="url(#r)" rx="22.644" ry="33.843"/></g></g></svg>