<svg xmlns="http://www.w3.org/2000/svg" xmlns:xlink="http://www.w3.org/1999/xlink" width="122" height="122">
  <defs>
    <linearGradient id="a" x1="0%" y1="50%" y2="50%">
      <stop offset="0%" stop-color="#5B79A2"/>
      <stop offset="100%" stop-color="#2E4469"/>
    </linearGradient>
    <circle id="b" cx="60" cy="60" r="60"/>
    <linearGradient id="d" x1="45.117%" x2="0%" y1="168.048%" y2="5.569%">
      <stop offset="0%" stop-color="#C4D6EB" stop-opacity=".676"/>
      <stop offset="100%" stop-color="#91ACD2" stop-opacity=".3"/>
    </linearGradient>
    <circle id="c" cx="60" cy="60" r="48"/>
    <linearGradient id="f" x1="100%" x2="8.332%" y1="68.605%" y2="50%">
      <stop offset="0%" stop-color="#F4487D" stop-opacity="0"/>
      <stop offset="100%" stop-color="#FF6E9C"/>
    </linearGradient>
    <filter id="g" width="160%" height="160%" x="-30%" y="-30%" filterUnits="objectBoundingBox">
      <feGaussianBlur in="SourceGraphic" stdDeviation="2"/>
    </filter>
    <linearGradient id="h" x1="50%" x2="50%" y1="0%" y2="50.445%">
      <stop offset="0%" stop-opacity="0"/>
      <stop offset="100%" stop-opacity=".372"/>
    </linearGradient>
    <filter id="i" width="113.6%" height="143.4%" x="-6.8%" y="-21.7%" filterUnits="objectBoundingBox">
      <feGaussianBlur in="SourceGraphic" stdDeviation="1"/>
    </filter>
    <linearGradient id="j" x1="94.668%" x2="22.848%" y1="94.914%" y2="7.02%">
      <stop offset="0%" stop-color="#F4487D"/>
      <stop offset="100%" stop-color="#FF6E9C"/>
    </linearGradient>
    <circle id="k" cx="60" cy="60" r="60"/>
    <linearGradient id="l" x1="104.531%" x2="12.045%" y1="100%" y2="0%">
      <stop offset="0%" stop-color="#F4487D" stop-opacity=".16"/>
      <stop offset="100%" stop-color="#FF6E9C"/>
    </linearGradient>
    <linearGradient id="m" x1="26.797%" x2="116.901%" y1="50%" y2="27.94%">
      <stop offset="0%" stop-color="#F4487D" stop-opacity="0"/>
      <stop offset="100%" stop-color="#FF6E9C"/>
    </linearGradient>
    <linearGradient id="n" x1="25.51%" y1="21.255%" y2="100%">
      <stop offset="0%" stop-color="#F4487D" stop-opacity="0"/>
      <stop offset="100%" stop-color="#FF6E9C"/>
    </linearGradient>
    <linearGradient id="o" x1="75.221%" x2="32.109%" y1="85.504%" y2="0%">
      <stop offset="0%" stop-color="#F4487D" stop-opacity="0"/>
      <stop offset="100%" stop-color="#FF6E9C"/>
    </linearGradient>
    <linearGradient id="p" x1="71.903%" x2="10.865%" y1="72.235%" y2="0%">
      <stop offset="0%" stop-color="#F4487D" stop-opacity="0"/>
      <stop offset="100%" stop-color="#FF6E9C"/>
    </linearGradient>
  </defs>
  <g fill="none" fill-rule="evenodd" transform="translate(1 1)">
    <use fill="url(#a)" xlink:href="#b"/>
    <mask id="e" fill="#fff">
      <use xlink:href="#c"/>
    </mask>
    <circle cx="60" cy="60" r="47.9" stroke="url(#d)" stroke-width=".2"/>
    <g mask="url(#e)">
      <g transform="translate(25 25)">
        <circle cx="35" cy="34.875" r="34.875" fill="#F1476C" opacity=".1"/>
        <circle cx="35" cy="34.75" r="26.5" fill="#F1476C" stroke="#000" stroke-width=".5" opacity=".1"/>
        <circle cx="35" cy="34.5" r="17.5" fill="#F1476C" opacity=".1"/>
        <path stroke="url(#f)" stroke-width=".5" d="M14.5 8l-6 28.5 16 32.5 30-16.5 12-33.5L47 21.5l-8 9"/>
        <circle cx="35.5" cy="35" r="10" fill="#F1476C" filter="url(#g)" opacity=".749"/>
        <ellipse cx="34.97" cy="35" fill="#1E2E49" fill-rule="nonzero" rx="6.97" ry="7"/>
      </g>
    </g>
    <path fill="url(#h)" d="M62.448 28.542l3.504-6.852 38.57 9.638L106.5 35.5z" filter="url(#i)" opacity=".5"/>
    <use stroke="url(#j)" stroke-width="2" xlink:href="#k"/>
    <path stroke="url(#l)" stroke-linejoin="round" stroke-width="2" d="M107.5 96.5l-1.88-65.595-42.438-8.894-3.603 41.038"/>
    <g transform="translate(55 55)">
      <circle cx="5" cy="5" r="5" fill="#F1476C"/>
      <path fill="#FFF" fill-opacity=".2" d="M1.905 8.571a4.762 4.762 0 1 1 6.667-6.667 4.762 4.762 0 0 0-6.667 6.667z"/>
    </g>
    <g transform="translate(59 17)">
      <circle cx="4" cy="4" r="4" fill="#F1476C"/>
      <path fill="#FFF" fill-opacity=".2" d="M1.524 6.857a3.81 3.81 0 1 1 5.334-5.334 3.81 3.81 0 0 0-5.334 5.334z"/>
    </g>
    <g transform="translate(102 27)">
      <circle cx="4" cy="4" r="4" fill="#F1476C"/>
      <path fill="#FFF" fill-opacity=".2" d="M1.524 6.857a3.81 3.81 0 1 1 5.334-5.334 3.81 3.81 0 0 0-5.334 5.334z"/>
    </g>
    <ellipse cx="39.485" cy="32.5" fill="#1E2E49" fill-rule="nonzero" rx="2.489" ry="2.5"/>
    <circle cx="49.5" cy="93.5" r="4.5" fill="#1E2E49" fill-rule="nonzero"/>
    <circle cx="79.5" cy="77.5" r="2.5" fill="#1E2E49" fill-rule="nonzero"/>
    <g transform="translate(31 59)">
      <ellipse cx="2.485" cy="2.5" fill="#1E2E49" fill-rule="nonzero" rx="1.991" ry="2"/>
      <ellipse cx="2.485" cy="2.5" stroke="url(#m)" stroke-linejoin="round" stroke-width=".3" rx="1.991" ry="2"/>
    </g>
    <g transform="rotate(131 26.698 40.32)">
      <ellipse cx="1.998" cy="2.01" fill="#1E2E49" fill-rule="nonzero" rx="1.601" ry="1.608"/>
      <ellipse cx="1.998" cy="2.01" stroke="url(#m)" stroke-linejoin="round" stroke-width=".3" rx="1.601" ry="1.608"/>
    </g>
    <g transform="rotate(131 36.822 43.45)">
      <ellipse cx="1.641" cy="1.651" fill="#1E2E49" fill-rule="nonzero" rx="1.315" ry="1.321"/>
      <ellipse cx="1.641" cy="1.651" stroke="url(#m)" stroke-linejoin="round" stroke-width=".3" rx="1.315" ry="1.321"/>
    </g>
    <ellipse cx="39.485" cy="32.5" stroke="url(#n)" stroke-linejoin="round" stroke-width=".3" rx="2.489" ry="2.5"/>
    <circle cx="49.5" cy="93.5" r="4.5" stroke="url(#o)" stroke-linejoin="round" stroke-width=".3"/>
    <circle cx="79.5" cy="77.5" r="2.5" stroke="url(#p)" stroke-linejoin="round" stroke-width=".3"/>
  </g>
</svg>
