<svg xmlns="http://www.w3.org/2000/svg" xmlns:xlink="http://www.w3.org/1999/xlink" width="401" height="408"><defs><linearGradient id="aq" x1="71.928%" x2="16.833%" y1="0%" y2="100%"><stop offset="0%" stop-color="#476698"/><stop offset="100%" stop-color="#253652"/></linearGradient><linearGradient id="am" x1="13.01%" x2="50%" y1="47.068%" y2="54.009%"><stop offset="0%" stop-color="#57DBFF"/><stop offset="100%" stop-color="#637BFF" stop-opacity="0"/></linearGradient><linearGradient id="d" x1="1.259%" x2="98.741%" y1="48.741%" y2="48.741%"><stop offset="0%" stop-color="#21C8F6"/><stop offset="100%" stop-color="#637BFF"/></linearGradient><linearGradient id="e" x1="98.922%" x2=".766%" y1="49.991%" y2="50.008%"><stop offset="0%" stop-color="#21C8F6"/><stop offset="100%" stop-color="#637BFF"/></linearGradient><linearGradient id="aj" x1=".008%" x2="99.992%" y1="50.125%" y2="49.875%"><stop offset="0%" stop-color="#6F90BC"/><stop offset="100%" stop-color="#2E4469"/></linearGradient><linearGradient id="ai" x1="34.129%" x2="60.691%" y1="44.78%" y2="53.283%"><stop offset="0%" stop-color="#5B79A2"/><stop offset="100%" stop-color="#2E4469"/></linearGradient><linearGradient id="an" x1="75.874%" x2="92.229%" y1="34.347%" y2="96.254%"><stop offset="0%" stop-color="#5B79A2"/><stop offset="100%" stop-color="#2E4469"/></linearGradient><linearGradient id="ah" x1="98.741%" x2="1.259%" y1="48.741%" y2="48.741%"><stop offset="0%" stop-color="#21C8F6"/><stop offset="100%" stop-color="#637BFF"/></linearGradient><linearGradient id="ae" x1="46.014%" x2="55.51%" y1="2.256%" y2="100%"><stop offset="0%" stop-color="#374F73"/><stop offset="100%" stop-color="#253652"/></linearGradient><linearGradient id="ab" x1="17.425%" x2="95.029%" y1="49.834%" y2="50.174%"><stop offset="0%" stop-color="#374F73"/><stop offset="100%" stop-color="#253652"/></linearGradient><linearGradient id="n" x1="17.425%" x2="95.029%" y1="36.137%" y2="64.518%"><stop offset="0%" stop-color="#374F73"/><stop offset="100%" stop-color="#253652"/></linearGradient><linearGradient id="o" x1="50%" x2="50%" y1="149.484%" y2="0%"><stop offset="0%" stop-color="#5B79A2"/><stop offset="100%" stop-color="#2E4469"/></linearGradient><linearGradient id="p" x1="17.425%" x2="95.029%" y1="49.827%" y2="50.181%"><stop offset="0%" stop-color="#374F73"/><stop offset="100%" stop-color="#253652"/></linearGradient><linearGradient id="aa" x1="17.425%" x2="95.029%" y1="40.406%" y2="60.048%"><stop offset="0%" stop-color="#374F73"/><stop offset="100%" stop-color="#253652"/></linearGradient><linearGradient id="r" x1="50%" x2="50%" y1="0%" y2="97.483%"><stop offset="0%" stop-color="#21C8F6"/><stop offset="100%" stop-color="#637BFF"/></linearGradient><linearGradient id="s" x1="50%" x2="50%" y1="0%" y2="97.483%"><stop offset="0%" stop-color="#21C8F6"/><stop offset="100%" stop-color="#637BFF"/></linearGradient><linearGradient id="t" x1="50%" x2="50%" y1="0%" y2="97.483%"><stop offset="0%" stop-color="#21C8F6"/><stop offset="100%" stop-color="#637BFF"/></linearGradient><linearGradient id="X" x1="29.888%" x2="50.529%" y1="34.203%" y2="65.977%"><stop offset="0%" stop-color="#5B79A2"/><stop offset="100%" stop-color="#2E4469"/></linearGradient><linearGradient id="w" x1="7.541%" x2="276.807%" y1="27.213%" y2="179.504%"><stop offset="0%" stop-color="#76E1FF"/><stop offset="100%" stop-color="#637BFF" stop-opacity="0"/></linearGradient><linearGradient id="z" x1="98.741%" x2="1.259%" y1="48.741%" y2="48.741%"><stop offset="0%" stop-color="#21C8F6"/><stop offset="100%" stop-color="#637BFF"/></linearGradient><linearGradient id="W" x1="29.888%" x2="50.529%" y1="34.441%" y2="65.736%"><stop offset="0%" stop-color="#5B79A2"/><stop offset="100%" stop-color="#2E4469"/></linearGradient><linearGradient id="V" x1="98.741%" x2="1.259%" y1="48.741%" y2="48.741%"><stop offset="0%" stop-color="#21C8F6"/><stop offset="100%" stop-color="#637BFF"/></linearGradient><linearGradient id="A" x1="38.152%" x2="41.989%" y1="78.776%" y2="102.32%"><stop offset="0%" stop-color="#55739C"/><stop offset="100%" stop-color="#4179D5"/></linearGradient><linearGradient id="B" x1="1.259%" x2="98.741%" y1="48.741%" y2="48.741%"><stop offset="0%" stop-color="#21C8F6"/><stop offset="100%" stop-color="#637BFF"/></linearGradient><linearGradient id="C" x1="13.01%" x2="50%" y1="-5.193%" y2="125.474%"><stop offset="0%" stop-color="#57DBFF"/><stop offset="100%" stop-color="#637BFF" stop-opacity="0"/></linearGradient><linearGradient id="U" x1="98.741%" x2="1.259%" y1="48.741%" y2="48.741%"><stop offset="0%" stop-color="#21C8F6"/><stop offset="100%" stop-color="#637BFF"/></linearGradient><linearGradient id="H" x1="98.741%" x2="1.259%" y1="48.741%" y2="48.741%"><stop offset="0%" stop-color="#21C8F6"/><stop offset="100%" stop-color="#637BFF"/></linearGradient><linearGradient id="c" x1="0%" y1="50%" y2="50%"><stop offset="0%" stop-color="#5B79A2"/><stop offset="100%" stop-color="#2E4469"/></linearGradient><linearGradient id="T" x1="16.192%" x2="84.563%" y1="0%" y2="94.065%"><stop offset="0%" stop-color="#57DBFF"/><stop offset="100%" stop-color="#637BFF" stop-opacity="0"/></linearGradient><linearGradient id="J" x1="154.902%" x2="24.379%" y1="138.188%" y2="14.184%"><stop offset="0%" stop-color="#76E1FF"/><stop offset="100%" stop-color="#637BFF" stop-opacity="0"/></linearGradient><linearGradient id="b" x1="-45.718%" x2="45.811%" y1="23.194%" y2="62.03%"><stop offset="0%" stop-color="#57759E"/><stop offset="100%" stop-color="#2E4469"/></linearGradient><linearGradient id="K" x1="13.96%" x2="105.629%" y1=".616%" y2="98.781%"><stop offset="0%" stop-color="#587CB9"/><stop offset="100%" stop-color="#2E4469" stop-opacity="0"/></linearGradient><linearGradient id="O" x1="98.741%" x2="1.259%" y1="48.741%" y2="48.741%"><stop offset="0%" stop-color="#21C8F6"/><stop offset="100%" stop-color="#637BFF"/></linearGradient><filter id="m" width="183.1%" height="178.5%" x="-41.5%" y="-39.3%" filterUnits="objectBoundingBox"><feGaussianBlur in="SourceGraphic" stdDeviation="7.2"/></filter><filter id="ap" width="132.3%" height="240%" x="-16.2%" y="-70%" filterUnits="objectBoundingBox"><feGaussianBlur in="SourceGraphic" stdDeviation="3.969"/></filter><filter id="Q" width="176.2%" height="837.5%" x="-38.1%" y="-290.3%" filterUnits="objectBoundingBox"><feOffset dy="5" in="SourceAlpha" result="shadowOffsetOuter1"/><feGaussianBlur in="shadowOffsetOuter1" result="shadowBlurOuter1" stdDeviation="7"/><feColorMatrix in="shadowBlurOuter1" values="0 0 0 0 0.0115609217 0 0 0 0 0.467910214 0 0 0 0 1 0 0 0 1 0"/></filter><filter id="F" width="527.3%" height="1040%" x="-213.6%" y="-370%" filterUnits="objectBoundingBox"><feOffset dy="5" in="SourceAlpha" result="shadowOffsetOuter1"/><feGaussianBlur in="shadowOffsetOuter1" result="shadowBlurOuter1" stdDeviation="7"/><feColorMatrix in="shadowBlurOuter1" values="0 0 0 0 0.0115609217 0 0 0 0 0.467910214 0 0 0 0 1 0 0 0 1 0"/></filter><filter id="ar" width="144.4%" height="144.4%" x="-22.2%" y="-22.2%" filterUnits="objectBoundingBox"><feGaussianBlur in="SourceGraphic" stdDeviation="6.804"/></filter><filter id="x" width="719.4%" height="273.4%" x="-309.7%" y="-72%" filterUnits="objectBoundingBox"><feOffset dy="5" in="SourceAlpha" result="shadowOffsetOuter1"/><feGaussianBlur in="shadowOffsetOuter1" result="shadowBlurOuter1" stdDeviation="9"/><feColorMatrix in="shadowBlurOuter1" values="0 0 0 0 0.0115609217 0 0 0 0 0.467910214 0 0 0 0 1 0 0 0 1 0"/></filter><filter id="as" width="180%" height="180%" x="-40%" y="-40%" filterUnits="objectBoundingBox"><feGaussianBlur in="SourceGraphic" stdDeviation="6.804"/></filter><filter id="v" width="104.9%" height="121%" x="-2.5%" y="-10.5%" filterUnits="objectBoundingBox"><feGaussianBlur in="SourceGraphic" stdDeviation="1.8"/></filter><filter id="Z" width="100%" height="100%" x="0%" y="0%" filterUnits="objectBoundingBox"><feGaussianBlur in="SourceGraphic"/></filter><filter id="q" width="119.2%" height="519.4%" x="-10.2%" y="-207.7%" filterUnits="objectBoundingBox"><feGaussianBlur in="SourceGraphic" stdDeviation="2"/></filter><filter id="M" width="176.2%" height="837.5%" x="-38.1%" y="-290.3%" filterUnits="objectBoundingBox"><feOffset dy="5" in="SourceAlpha" result="shadowOffsetOuter1"/><feGaussianBlur in="shadowOffsetOuter1" result="shadowBlurOuter1" stdDeviation="7"/><feColorMatrix in="shadowBlurOuter1" values="0 0 0 0 0.0115609217 0 0 0 0 0.467910214 0 0 0 0 1 0 0 0 1 0"/></filter><filter id="ac" width="116.3%" height="465.6%" x="-8.7%" y="-182.8%" filterUnits="objectBoundingBox"><feGaussianBlur in="SourceGraphic" stdDeviation="2"/></filter><filter id="ad" width="100%" height="100%" x="0%" y="0%" filterUnits="objectBoundingBox"><feGaussianBlur in="SourceGraphic"/></filter><filter id="l" width="183.1%" height="178.5%" x="-41.5%" y="-39.3%" filterUnits="objectBoundingBox"><feGaussianBlur in="SourceGraphic" stdDeviation="7.2"/></filter><filter id="j" width="381.2%" height="381.2%" x="-140.6%" y="-140.6%" filterUnits="objectBoundingBox"><feOffset in="SourceAlpha" result="shadowOffsetOuter1"/><feGaussianBlur in="shadowOffsetOuter1" result="shadowBlurOuter1" stdDeviation="1.5"/><feColorMatrix in="shadowBlurOuter1" values="0 0 0 0 1 0 0 0 0 1 0 0 0 0 1 0 0 0 1 0"/></filter><filter id="h" width="381.2%" height="381.2%" x="-140.6%" y="-140.6%" filterUnits="objectBoundingBox"><feOffset in="SourceAlpha" result="shadowOffsetOuter1"/><feGaussianBlur in="shadowOffsetOuter1" result="shadowBlurOuter1" stdDeviation="1.5"/><feColorMatrix in="shadowBlurOuter1" values="0 0 0 0 1 0 0 0 0 1 0 0 0 0 1 0 0 0 1 0"/></filter><filter id="af" width="157%" height="1220.5%" x="-28.5%" y="-465.3%" filterUnits="objectBoundingBox"><feOffset dy="5" in="SourceAlpha" result="shadowOffsetOuter1"/><feGaussianBlur in="shadowOffsetOuter1" result="shadowBlurOuter1" stdDeviation="9"/><feColorMatrix in="shadowBlurOuter1" values="0 0 0 0 0.0115609217 0 0 0 0 0.467910214 0 0 0 0 1 0 0 0 1 0"/></filter><filter id="f" width="381.2%" height="381.2%" x="-140.6%" y="-140.6%" filterUnits="objectBoundingBox"><feOffset in="SourceAlpha" result="shadowOffsetOuter1"/><feGaussianBlur in="shadowOffsetOuter1" result="shadowBlurOuter1" stdDeviation="1.5"/><feColorMatrix in="shadowBlurOuter1" values="0 0 0 0 1 0 0 0 0 1 0 0 0 0 1 0 0 0 1 0"/></filter><filter id="au" width="131.8%" height="131.3%" x="-15.9%" y="-15.7%" filterUnits="objectBoundingBox"><feOffset in="SourceAlpha" result="shadowOffsetOuter1"/><feGaussianBlur in="shadowOffsetOuter1" result="shadowBlurOuter1" stdDeviation="1"/><feColorMatrix in="shadowBlurOuter1" values="0 0 0 0 0.951002038 0 0 0 0 0.370524746 0 0 0 0 0.61045536 0 0 0 1 0"/></filter><filter id="al" width="100%" height="100%" x="0%" y="0%" filterUnits="objectBoundingBox"><feGaussianBlur in="SourceGraphic"/></filter><filter id="ax" width="119.8%" height="191.4%" x="-9.9%" y="-45.7%" filterUnits="objectBoundingBox"><feGaussianBlur in="SourceGraphic" stdDeviation="7.2"/></filter><radialGradient id="P" cx="0%" cy="100%" r="379.12%" fx="0%" fy="100%" gradientTransform="matrix(.08726 -.64586 .07382 .76346 -.074 .237)"><stop offset="0%" stop-color="#08C4FB" stop-opacity=".984"/><stop offset="100%" stop-color="#637BFF" stop-opacity="0"/></radialGradient><radialGradient id="ao" cx="52.436%" cy="42.955%" r="156.494%" fx="52.436%" fy="42.955%" gradientTransform="matrix(-.23077 0 0 -.21136 .645 .52)"><stop offset="0%" stop-color="#172743"/><stop offset="100%" stop-opacity="0"/></radialGradient><radialGradient id="Y" cx="52.436%" cy="42.955%" r="36.114%" fx="52.436%" fy="42.955%" gradientTransform="matrix(-1 0 0 -.21136 1.049 .52)"><stop offset="0%" stop-color="#172743"/><stop offset="100%" stop-opacity="0"/></radialGradient><radialGradient id="aw" r="103.466%" fx="50%" fy="50%" gradientTransform="matrix(0 .984 -1.93068 0 1.465 .008)"><stop offset="0%" stop-color="#FFF"/><stop offset="100%" stop-color="#C42E6C"/></radialGradient><radialGradient id="S" cx="0%" cy="100%" r="334.32%" fx="0%" fy="100%" gradientTransform="scale(.14534 1) rotate(-47.088 0 1)"><stop offset="0%" stop-color="#08C4FB" stop-opacity=".984"/><stop offset="100%" stop-color="#637BFF" stop-opacity="0"/></radialGradient><radialGradient id="u" cx="52.436%" cy="42.955%" r="154.268%" fx="52.436%" fy="42.955%" gradientTransform="matrix(-.2341 0 0 -.21136 .647 .52)"><stop offset="0%" stop-color="#172743"/><stop offset="100%" stop-opacity="0"/></radialGradient><radialGradient id="ak" cx="52.436%" cy="42.955%" r="91.927%" fx="52.436%" fy="42.955%" gradientTransform="matrix(-.39286 0 0 -.21136 .73 .52)"><stop offset="0%" stop-color="#172743"/><stop offset="100%" stop-opacity="0"/></radialGradient><radialGradient id="a" cx="48.165%" r="50.034%" fx="48.165%" fy="50%"><stop offset="0%" stop-color="#54A2FF"/><stop offset="100%" stop-color="#2579DB" stop-opacity="0"/></radialGradient><radialGradient id="at" r="68.353%" fx="50%" fy="50%"><stop offset="0%" stop-color="#21C8F6"/><stop offset="100%" stop-color="#4BDEFF"/></radialGradient><path id="ag" d="M61.18 69.233h98.327a2.633 2.633 0 010 5.265H61.18a2.633 2.633 0 110-5.265z"/><path id="N" d="M48.631 38.13h55.335a3.186 3.186 0 010 6.374H48.632a3.186 3.186 0 010-6.373z"/><path id="I" d="M13.002 0h68.854c7.18 0 13.002 5.821 13.002 13.002v55.222a13.002 13.002 0 01-8.28 12.115c-8.2 3.197-20.707 4.796-37.52 4.796-17.825 0-31.402-1.797-40.73-5.392A13.002 13.002 0 010 67.61V13.002C0 5.822 5.821 0 13.002 0z"/><path id="G" d="M67.975 71.424c-1.964 0-3.832-.875-5.125-2.401a1.6 1.6 0 01.148-2.213 1.494 1.494 0 012.15.152 3.706 3.706 0 002.827 1.326 3.706 3.706 0 002.827-1.326 1.494 1.494 0 012.15-.152 1.6 1.6 0 01.148 2.213c-1.293 1.526-3.16 2.401-5.125 2.401z"/><path id="D" d="M13.002 0h68.854c7.18 0 13.002 5.821 13.002 13.002v55.222a13.002 13.002 0 01-8.28 12.115c-8.2 3.197-20.707 4.796-37.52 4.796-17.825 0-31.402-1.797-40.73-5.392A13.002 13.002 0 010 67.61V13.002C0 5.822 5.821 0 13.002 0z"/><path id="R" d="M49.466 56.371h55.335a3.186 3.186 0 010 6.373H49.466a3.186 3.186 0 110-6.373z"/><path id="av" d="M18.846 8.34v-3.7l-1.365.785-1.885 1.085v3.702l3.25-1.87zm-3.9 6.697v-3.704l-1.853 1.059-5.295 3.021v3.74l7.149-4.116zM0 2.432v12.605l7.148 4.115v-3.738L3.414 13.3h-.001l-.002-.001c-.013-.008-.023-.018-.035-.027-.01-.008-.022-.015-.03-.024h-.002c-.01-.011-.018-.024-.026-.035a.196.196 0 01-.025-.032c-.007-.013-.012-.028-.017-.041-.005-.013-.012-.024-.016-.037-.004-.016-.005-.032-.006-.048-.002-.012-.005-.024-.005-.036V4.303L1.364 3.217 0 2.432zM3.574 0L.326 1.87l3.248 1.87 3.248-1.87L3.574 0zm1.69 11.67l1.884-1.085V2.432l-1.364.785-1.885 1.086v8.153l1.365-.786zm10.008-9.463l-3.248 1.87 3.248 1.87 3.247-1.87-3.247-1.87zm-.325 4.302l-1.885-1.085-1.365-.785V8.34l1.885 1.085 1.365.786V6.51zm-7.474 8.342l4.764-2.72 2.381-1.359-3.245-1.868-3.737 2.151-3.406 1.96 3.243 1.836z"/><circle id="i" cx="67.16" cy="9.28" r="1.6"/><circle id="k" cx="73.28" cy="9.28" r="1.6"/><circle id="g" cx="61.04" cy="9.28" r="1.6"/><rect id="y" width="9.526" height="34.02" x="110.649" y="16.176" rx="4.763"/></defs><g fill="none" fill-rule="evenodd" style="mix-blend-mode:luminosity"><circle cx="204" cy="204" r="204" fill="url(#a)"/><g transform="translate(248 281)"><rect width="111.36" height="56.32" x="8.32" fill="url(#b)" rx="5.76"/><g transform="translate(0 7.36)"><path fill="#1B283E" d="M8.32 37.76h111.36v5.12H8.32z" opacity=".502"/><rect width="128" height="37.76" fill="url(#c)" rx="2.56"/><rect width="72.32" height="8.96" x="5.76" y="5.12" fill="#1B283E" rx="1.28"/><rect width="72.32" height="4.48" x="5.76" y="16.64" fill="#1B283E" rx="1.28"/><g fill="#1B283E" transform="translate(90.88 5.44)"><rect width="1.28" height="26.88" x="13.44" rx=".64"/><rect width="1.28" height="26.88" x="4.48" rx=".64"/><rect width="1.28" height="26.88" x="22.4" rx=".64"/><rect width="1.28" height="26.88" rx=".64"/><rect width="1.28" height="26.88" x="17.92" rx=".64"/><rect width="1.28" height="26.88" x="8.96" rx=".64"/><rect width="1.28" height="26.88" x="26.88" rx=".64"/></g><g transform="translate(8.96 28.16)"><circle cx="3.84" cy="3.84" r="3.84" fill="#1B283E"/><circle cx="3.84" cy="3.84" r="2.56" fill="url(#d)"/></g><path stroke="url(#e)" stroke-linecap="round" stroke-linejoin="round" stroke-width="1.28" d="M8.96 9.6h46.683"/><use fill="#000" filter="url(#f)" xlink:href="#g"/><use fill="#F2EAEA" xlink:href="#g"/><use fill="#000" filter="url(#h)" xlink:href="#i"/><use fill="#F2EAEA" xlink:href="#i"/><use fill="#000" filter="url(#j)" xlink:href="#k"/><use fill="#F2EAEA" xlink:href="#k"/></g></g><g transform="translate(79 281)"><rect width="111.36" height="56.32" x="8.32" fill="url(#b)" rx="5.76"/><g transform="translate(0 7.36)"><path fill="#1B283E" d="M8.32 37.76h111.36v5.12H8.32z" opacity=".502"/><rect width="128" height="37.76" fill="url(#c)" rx="2.56"/><rect width="72.32" height="8.96" x="5.76" y="5.12" fill="#1B283E" rx="1.28"/><rect width="72.32" height="4.48" x="5.76" y="16.64" fill="#1B283E" rx="1.28"/><g fill="#1B283E" transform="translate(90.88 5.44)"><rect width="1.28" height="26.88" x="13.44" rx=".64"/><rect width="1.28" height="26.88" x="4.48" rx=".64"/><rect width="1.28" height="26.88" x="22.4" rx=".64"/><rect width="1.28" height="26.88" rx=".64"/><rect width="1.28" height="26.88" x="17.92" rx=".64"/><rect width="1.28" height="26.88" x="8.96" rx=".64"/><rect width="1.28" height="26.88" x="26.88" rx=".64"/></g><g transform="translate(8.96 28.16)"><circle cx="3.84" cy="3.84" r="3.84" fill="#1B283E"/><circle cx="3.84" cy="3.84" r="2.56" fill="url(#d)"/></g><path stroke="url(#e)" stroke-linecap="round" stroke-linejoin="round" stroke-width="1.28" d="M8.96 9.6h46.683"/><circle cx="63.04" cy="9.28" r="1.6" fill="url(#d)"/><circle cx="68.16" cy="9.28" r="1.6" fill="url(#d)"/><circle cx="73.28" cy="9.28" r="1.6" fill="url(#d)"/></g></g><ellipse cx="134" cy="313.5" fill="#002561" filter="url(#l)" opacity=".469" rx="26" ry="27.5" style="mix-blend-mode:hard-light"/><ellipse cx="302" cy="313.5" fill="#002561" filter="url(#m)" opacity=".469" rx="26" ry="27.5" style="mix-blend-mode:hard-light"/><path stroke="url(#n)" stroke-width="5.103" d="M13.44 7.155c-17.11 1.101-18.171 37.563 3.431 41.28C34.296 51.433 74.47 51.226 81 47.04" transform="translate(56.338 294.516)"/><g transform="rotate(90 -107.938 187.147)"><rect width="8.1" height="8.505" x="3.038" y="2.835" fill="#1B283E" rx="4.05"/><rect width="14.175" height="5.67" fill="url(#o)" rx="2.835"/></g><path stroke="url(#p)" stroke-width="5.103" d="M.11 53.003c22.215 8.077 56.893 1.574 67.21 1.458" filter="url(#q)" transform="translate(72.517 289.949)"/><g transform="translate(111 134)"><ellipse cx="50.5" cy="87.5" fill="url(#r)" opacity=".8" rx="6.5" ry="5"/><ellipse cx="48.5" cy="54.5" fill="url(#s)" rx="3.5" ry="4.5"/><circle cx="20.5" cy="62.5" r="3.5" fill="url(#t)" opacity=".6"/><circle cx="18" cy="2" r="2" fill="url(#t)" opacity=".6"/><circle cx="8" cy="34" r="3" fill="url(#t)" opacity=".6"/><circle cx="2.5" cy="80.5" r="2.5" fill="url(#t)"/><circle cx="23.5" cy="18.5" r="2.5" fill="url(#t)" opacity=".4"/></g><g transform="matrix(-1 0 0 1 302 150)"><ellipse cx="50.5" cy="71.5" fill="url(#r)" opacity=".8" rx="6.5" ry="5"/><ellipse cx="48.5" cy="38.5" fill="url(#s)" rx="3.5" ry="4.5"/><circle cx="20.5" cy="46.5" r="3.5" fill="url(#t)" opacity=".6"/><circle cx="2.5" cy="64.5" r="2.5" fill="url(#t)"/><circle cx="23.5" cy="2.5" r="2.5" fill="url(#t)" opacity=".4"/></g><g transform="rotate(1 -2215.023 1753.111)"><ellipse cx="189.936" cy="314.665" fill="url(#u)" filter="url(#v)" opacity=".899" rx="109.8" ry="25.704" style="mix-blend-mode:hard-light" transform="rotate(-1 189.936 314.665)"/><g transform="scale(-1 1) rotate(52 -116.858 -49.417)"><path stroke="url(#w)" stroke-width="5.67" d="M124.577 129.837L74.621 8.302 7.084 44.858"/><circle cx="75.014" cy="8.335" r="8.335" fill="url(#t)"/><path fill="#FFF" fill-opacity=".2" d="M74.617 0a7.926 7.926 0 016.35 3.174 7.938 7.938 0 00-11.113 11.114A7.938 7.938 0 0174.617 0z"/></g><g transform="rotate(-11 484.218 57.258)"><use fill="#000" filter="url(#x)" xlink:href="#y"/><use fill="url(#z)" xlink:href="#y"/></g><g transform="rotate(-10 197.428 -500.217)"><path fill="url(#A)" d="M45.758 0h61.233c15.388 0 27.862 12.474 27.862 27.862v64.46c0 18.465-14.97 33.434-33.435 33.434H51.33c-18.466 0-33.435-14.969-33.435-33.434v-64.46C17.895 12.474 30.37 0 45.758 0z"/><ellipse cx="42.241" cy="10.759" fill="url(#B)" rx="3.683" ry="3.742"/><path fill="#1B283E" d="M20.19 78.191c0 18.466 14.97 33.435 33.436 33.435H99.25c18.466 0 33.435-14.97 33.435-33.435v15.113c0 18.465-14.97 33.435-33.435 33.435H53.626c-18.466 0-33.435-14.97-33.435-33.435z" opacity=".499"/><path stroke="url(#C)" stroke-width="2.025" d="M136.25 40.487c.035.693.038 1.387.009 2.08l-2.215 52.155c-.76 17.898-15.49 32.017-33.405 32.017H52.35c-17.96 0-32.71-14.188-33.41-32.134l-1.88-48.312a22.189 22.189 0 013.132-12.294v44.192c0 18.466 14.97 33.435 33.435 33.435H99.25c18.466 0 33.435-14.97 33.435-33.435V29.478a22.187 22.187 0 013.565 11.009z"/><g transform="translate(29.374 18.711)"><mask id="E" fill="#fff"><use xlink:href="#D"/></mask><use fill="#1B283E" xlink:href="#D"/><g mask="url(#E)" transform="rotate(-15 67.975 68.924)"><use fill="#000" filter="url(#F)" xlink:href="#G"/><use fill="url(#H)" xlink:href="#G"/></g><mask id="L" fill="#fff"><use xlink:href="#I"/></mask><path stroke="url(#J)" stroke-width="2.025" d="M13.002 1.012c-6.621 0-11.99 5.369-11.99 11.99V67.61a11.99 11.99 0 007.68 11.188c9.192 3.542 22.655 5.325 40.366 5.325 16.698 0 29.092-1.585 37.153-4.728a11.99 11.99 0 007.634-11.17V13.001c0-6.621-5.368-11.99-11.99-11.99H13.003z"/><ellipse cx="26.704" cy="15.904" fill="url(#K)" mask="url(#L)" rx="52.488" ry="53.326"/></g><use fill="#000" filter="url(#M)" xlink:href="#N"/><use fill="url(#O)" xlink:href="#N"/><path fill="url(#P)" d="M49.466 47.515h49.381a3.186 3.186 0 010 6.373H49.466a3.186 3.186 0 110-6.373z"/><use fill="#000" filter="url(#Q)" xlink:href="#R"/><use fill="url(#O)" xlink:href="#R"/><path fill="url(#S)" d="M49.466 65.228H86.94a3.186 3.186 0 010 6.373H49.466a3.186 3.186 0 110-6.373z"/><path d="M88.9 13.285h-2.96c-.81 0-1.467-.67-1.467-1.497 0-.827.657-1.497 1.467-1.497h2.96c.81 0 1.467.67 1.467 1.497 0 .827-.657 1.497-1.468 1.497zm5.525-4.117h-2.96c-.81 0-1.467-.67-1.467-1.496 0-.827.657-1.497 1.467-1.497h2.96c.81 0 1.467.67 1.467 1.497 0 .826-.657 1.496-1.467 1.496zm15.099 4.117H93.317c-.816 0-1.477-.67-1.477-1.497 0-.827.661-1.497 1.477-1.497h16.2c.815 0 1.476.67 1.476 1.497 0 .827-.66 1.497-1.477 1.497h.008zm5.459-4.117H98.9c-.848 0-1.535-.67-1.535-1.496 0-.827.687-1.497 1.535-1.497h16.083c.848 0 1.535.67 1.535 1.497 0 .826-.687 1.496-1.535 1.496z" fill="#243552"/><path stroke="url(#T)" stroke-width="2.835" d="M45.758 0h61.36c15.388 0 27.863 12.474 27.863 27.862V91.59c0 18.465-14.97 33.434-33.435 33.434H51.33c-18.466 0-33.435-14.969-33.435-33.434V27.862C17.895 12.474 30.37 0 45.758 0z"/><g style="mix-blend-mode:luminosity"><g transform="rotate(-4 343.61 11.503)"><ellipse cx="37.08" cy="28.304" fill="url(#U)" opacity=".398" rx="27.192" ry="27.074"/><ellipse cx="107.532" cy="28.304" fill="url(#U)" opacity=".398" rx="27.192" ry="27.074"/><path fill="#1B283E" stroke="#1B283E" stroke-width="2.025" d="M106.947 53.904c-13.896 0-25.16-11.186-25.16-24.985 0-13.798 11.264-24.984 25.16-24.984 13.895 0 25.16 11.186 25.16 24.984 0 13.8-11.265 24.985-25.16 24.985zm-70.256 0c-13.895 0-25.16-11.186-25.16-24.985 0-13.798 11.265-24.984 25.16-24.984 13.896 0 25.16 11.186 25.16 24.984 0 13.8-11.264 24.985-25.16 24.985zm96.847-40.309c-2.101-2.408-6.092-5.527-8.481-7.31a29.056 29.056 0 00-1.9-1.39l-.04-.03v.003A29.128 29.128 0 00106.947 0a29.135 29.135 0 00-20.629 8.507c-2.553 2.369-4.753 4.962-7.029 7.503-2.882 3.22-4.587 1.64-7.47 1.64-2.882 0-4.588 1.58-7.47-1.64-2.275-2.54-4.477-5.134-7.03-7.503C52.047 3.252 44.664 0 36.603 0c-5.983 0-11.9 1.795-16.259 4.868v-.004l.045.03c-.654.437-1.242.903-1.857 1.39-2.39 1.784-6.484 4.903-8.585 7.311C6.824 17.173 0 17.411 0 17.411v7.395s4.084-.24 5.405 1.311c.78.915 1.622 5.32 2.996 9.93.419 1.642 1.015 3.225 1.704 4.741.643 1.508 1.395 2.905 2.254 4.05l.009-.007a29.152 29.152 0 0024.32 13.008c11.8 0 21.956-6.974 26.531-16.993l.023-.029.068-.111c2.09-3.524 4.196-13.174 5.147-14.708.96-1.55 3.362-1.67 3.362-1.67s2.402.12 3.363 1.67c.95 1.534 3.055 11.184 5.146 14.708l.068.111.02.029a29.133 29.133 0 0026.531 16.993 29.142 29.142 0 0024.315-13.008l.002.008c.86-1.146 1.596-2.543 2.239-4.05a28.55 28.55 0 001.674-4.743c1.373-4.609 2.145-9.014 2.924-9.929 1.322-1.55 5.275-1.311 5.275-1.311V17.41s-6.715-.238-9.838-3.816z"/></g><path fill="url(#V)" d="M105.672 4.964L86.637 41.768c1.476 2.726 3.626 5.012 6.45 6.858a24.232 24.232 0 009.186 3.635l20.06-41.887c-3.387-2.148-6.013-3.532-7.878-4.152-1.864-.62-4.792-1.04-8.783-1.258zm-70.438-.296L16.199 41.472c1.476 2.726 3.626 5.012 6.45 6.859a24.232 24.232 0 009.186 3.634l20.06-41.887c-3.387-2.148-6.013-3.532-7.877-4.152-1.865-.62-4.793-1.04-8.784-1.258z" opacity=".309" transform="rotate(-4 343.61 11.503)"/></g></g><g transform="translate(80.704 181.14)"><path fill="#1B283E" d="M29.306 4.908l159.01-3.16c9.566-.19 17.475 7.41 17.666 16.976.014.733-.018 1.465-.096 2.194l-8.704 81.044c-1.863 17.35-16.338 30.607-33.784 30.942l-102.771 1.975c-17.227.331-32.08-12.046-34.86-29.05L12.553 25.025c-1.544-9.443 4.859-18.35 14.302-19.893.81-.133 1.63-.208 2.451-.224z"/><path fill="url(#W)" d="M24.729 5.09L193.08 1.766c9.566-.189 17.474 7.413 17.663 16.979a17.373 17.373 0 01-.212 3.065l-10.43 65.524c-2.636 16.567-16.761 28.865-33.533 29.196l-109.607 2.165c-16.538.327-31.001-11.083-34.534-27.243L8.146 26.111c-2.043-9.347 3.878-18.58 13.225-20.624a17.324 17.324 0 013.358-.396z"/><path fill="url(#X)" d="M25.66 4.202L194.072.87c9.566-.19 17.475 7.412 17.664 16.978a17.324 17.324 0 01-.237 3.215l-11.19 66.559c-2.762 16.43-16.826 28.568-33.483 28.897l-109.53 2.168c-16.687.33-31.24-11.285-34.616-27.631L9.037 25.029c-1.936-9.37 4.09-18.536 13.46-20.472 1.042-.215 2.1-.334 3.163-.355z"/><g transform="rotate(-7 651.678 -1500.372)"><circle cx="80.275" cy="19.275" r="11.34" fill="url(#Y)" filter="url(#Z)" opacity=".899" transform="rotate(-81 80.275 19.275)"/><path stroke="url(#aa)" stroke-width="5.103" d="M12.44 7.155C-4.67 8.256-3.43 38.593 15.394 45.437c22.216 8.077 71.464 2.034 79.356-1.396" transform="scale(-1 1) rotate(-8 48.918 733.71)"/><path stroke="url(#ab)" stroke-width="5.103" d="M15.29 48.435c22.215 8.078 69.038-1.28 79.355-1.395" filter="url(#ac)" transform="scale(-1 1) rotate(-8 48.918 733.71)"/><g transform="scale(-1 1) rotate(82 -46.545 -40.223)"><rect width="8.1" height="8.505" x="3.038" y="2.835" fill="#1B283E" rx="4.05"/><rect width="14.175" height="5.67" fill="url(#o)" rx="2.835"/></g></g><g transform="translate(194.442 24.628)"><circle cx="13.275" cy="13.275" r="11.34" fill="url(#Y)" filter="url(#ad)" opacity=".899" transform="rotate(-81 13.275 13.275)"/><path stroke="url(#ae)" stroke-width="5.103" d="M10.44 7.155C-6.67 8.256 3.798 24.265 1.747 38.86-.07 51.794 8.501 59.846 18.82 59.73" transform="scale(-1 1) rotate(-8 38.516 237.338)"/><g transform="scale(-1 1) rotate(82 -9.594 -4.686)"><rect width="8.1" height="8.505" x="3.038" y="2.835" fill="#1B283E" rx="4.05"/><rect width="14.175" height="5.67" fill="url(#o)" rx="2.835"/></g></g><path fill="#1B283E" d="M60.973 60.453l98.312-1.716a2.633 2.633 0 11.092 5.264l-49.938.872-48.374.845a2.633 2.633 0 11-.092-5.265z"/><g transform="rotate(-1 110.343 71.865)"><use fill="#000" filter="url(#af)" xlink:href="#ag"/><use fill="url(#ah)" xlink:href="#ag"/></g><path fill="#1B283E" d="M62.688 79.705L161 77.99a2.633 2.633 0 01.092 5.265l-49.938.872-48.374.844a2.633 2.633 0 01-.092-5.265zm.169 9.639l98.311-1.716a2.633 2.633 0 01.092 5.265l-49.938.871-48.374.845a2.633 2.633 0 11-.091-5.265z"/><path fill="url(#ai)" d="M52.115 2.3L170.005.739c7.918-.105 14.422 6.229 14.527 14.147a14.339 14.339 0 01-.989 5.425 31.719 31.719 0 01-29.11 20.136l-84.93 1.125A32.52 32.52 0 0139.337 22.22c-3.17-7.161.065-15.537 7.226-18.708A14.18 14.18 0 0152.115 2.3z"/><path fill="url(#aj)" d="M23.07 3.03L198.356.746c7.168-.093 13.054 5.642 13.148 12.81a12.98 12.98 0 01-1.626 6.46l-1.09 1.969a34.649 34.649 0 01-29.857 17.853L43.752 41.6a34.649 34.649 0 01-30.035-16.61l-1.463-2.4c-3.699-6.067-1.78-13.983 4.287-17.681a12.865 12.865 0 016.53-1.88z"/><path fill="#1B283E" d="M88.209 6.261l47.072-.821a17.324 17.324 0 0111.47 4.077l7.817 6.59a6.276 6.276 0 01-3.936 11.074l-77.006 1.344a6.276 6.276 0 01-4.32-10.93l7.583-6.86a17.324 17.324 0 0111.32-4.474z"/><ellipse cx="136.842" cy="16.591" fill="url(#ak)" filter="url(#al)" opacity=".899" rx="39.69" ry="15.592" transform="rotate(-1 136.842 16.591)"/></g><path fill="#1B283E" d="M292.207 194.698a12.98 12.98 0 01-1.625 6.46l-1.09 1.968a34.649 34.649 0 01-29.857 17.854l-135.18 1.76a34.649 34.649 0 01-30.034-16.61l-1.463-2.4a12.825 12.825 0 01-1.516-9.739 12.84 12.84 0 001.516 3.642l1.463 2.4a34.649 34.649 0 0030.035 16.61l135.179-1.76a34.649 34.649 0 0029.856-17.853l1.091-1.97a12.98 12.98 0 001.265-3.248c.223.926.347 1.892.36 2.886z" opacity=".504"/><path stroke="url(#am)" stroke-width="2.025" d="M103.774 184.17l175.286-2.282c7.168-.094 13.054 5.641 13.147 12.81a12.98 12.98 0 01-1.625 6.46l-1.09 1.968a34.649 34.649 0 01-29.857 17.854l-135.18 1.76a34.649 34.649 0 01-30.034-16.61l-1.463-2.4c-3.699-6.066-1.78-13.983 4.287-17.681a12.865 12.865 0 016.53-1.88z"/><g transform="rotate(-1 8257.16 -8687.417)"><path fill="url(#an)" d="M25.031 3.392h29.255c7.442 0 13.475 6.033 13.475 13.475V49.75a7.7 7.7 0 01-7.7 7.7H19.257a7.7 7.7 0 01-7.7-7.7V16.867c0-7.442 6.033-13.475 13.474-13.475z"/><circle cx="38.612" cy="31.578" r="19.845" fill="#1B283E"/><ellipse cx="36.908" cy="9.273" fill="url(#ao)" filter="url(#ap)" opacity=".65" rx="36.855" ry="8.505"/></g><path stroke="url(#aq)" stroke-width="5.103" d="M42.525 7.155c-17.11 1.101-19.79 21.047-25.799 30.051-9.609 14.4-25.5 9.908-10.361 24.514" transform="scale(-1 1) rotate(-45 50.09 401.479)"/><g transform="scale(-1 1) rotate(45 -259.453 -223.582)"><rect width="8.1" height="8.505" x="3.038" y="2.835" fill="#1B283E" rx="4.05"/><rect width="14.175" height="5.67" fill="url(#o)" rx="2.835"/></g></g><g transform="translate(172.143 169.4)"><circle cx="45.927" cy="45.927" r="45.927" fill="#92BAE9" filter="url(#ar)" opacity=".136" style="mix-blend-mode:overlay"/><circle cx="45.927" cy="45.927" r="25.515" fill="#328AF1" filter="url(#as)" opacity=".842"/><circle cx="46.471" cy="46.977" r="13.608" fill="url(#at)" transform="scale(1 -1) rotate(4 1391.722 0)"/><g style="mix-blend-mode:luminosity" transform="translate(38 38)"><use fill="#000" filter="url(#au)" xlink:href="#av"/><use fill="url(#aw)" xlink:href="#av"/></g><path fill="#FFF" fill-opacity=".547" d="M34.923 47.854A11.972 11.972 0 0040 56.448a11.95 11.95 0 01-2.077-5.594c-.693-6.59 4.089-12.496 10.68-13.188a11.953 11.953 0 018.111 2.086 11.998 11.998 0 00-11.111-5.086c-6.591.692-11.373 6.597-10.68 13.188z" opacity=".5" style="mix-blend-mode:lighten"/></g><path fill="#002561" d="M203.658 345.262c23.22 0 34.925-8.557 52.69-14.024 28.442-8.752 46.952-7.119 46.952-13.744 0-10.765-48.958-19.49-109.35-19.49-60.392 0-109.35 8.725-109.35 19.49 0 6.251 23.293 2.033 48.878 10.677 18.467 6.239 44.863 17.09 70.18 17.09z" filter="url(#ax)" opacity=".329" style="mix-blend-mode:hard-light" transform="translate(23.643 38.9)"/></g></svg>