<svg xmlns="http://www.w3.org/2000/svg" xmlns:xlink="http://www.w3.org/1999/xlink" width="122" height="122">
  <defs>
    <linearGradient id="a" x1="51.53%" x2="15.735%" y1="-164.307%" y2="83.311%">
      <stop offset="0%" stop-color="#5B79A2"/>
      <stop offset="100%" stop-color="#2E4469"/>
    </linearGradient>
    <radialGradient id="b" cx="52.436%" cy="42.955%" r="192.473%" fx="52.436%" fy="42.955%" gradientTransform="matrix(-.25352 0 0 -.25522 .657 .54)">
      <stop offset="0%"/>
      <stop offset="100%" stop-opacity=".002"/>
    </radialGradient>
    <linearGradient id="c" x1="45.117%" x2="0%" y1="168.048%" y2="5.569%">
      <stop offset="0%" stop-color="#C4D6EB" stop-opacity=".676"/>
      <stop offset="100%" stop-color="#91ACD2" stop-opacity=".3"/>
    </linearGradient>
    <linearGradient id="d" x1="8.089%" x2="116.41%" y1="81.618%" y2="-6.367%">
      <stop offset="0%" stop-color="#76E1FF"/>
      <stop offset="100%" stop-color="#637BFF" stop-opacity="0"/>
    </linearGradient>
    <linearGradient id="e" x1="100.46%" x2="8.089%" y1="21.826%" y2="81.618%">
      <stop offset="0%" stop-color="#76E1FF"/>
      <stop offset="100%" stop-color="#637BFF" stop-opacity="0"/>
    </linearGradient>
    <linearGradient id="f" x1="0%" y1="50%" y2="50%">
      <stop offset="0%" stop-color="#5B79A2"/>
      <stop offset="100%" stop-color="#2E4469"/>
    </linearGradient>
    <linearGradient id="g" x1="0%" x2="69.118%" y1="15.138%" y2="129.609%">
      <stop offset="0%" stop-color="#76E1FF"/>
      <stop offset="100%" stop-color="#637BFF" stop-opacity="0"/>
    </linearGradient>
    <linearGradient id="h" x1="24.379%" x2="84.171%" y1="5.536%" y2="97.907%">
      <stop offset="0%" stop-color="#76E1FF"/>
      <stop offset="100%" stop-color="#637BFF" stop-opacity="0"/>
    </linearGradient>
    <linearGradient id="i" x1="50%" x2="50%" y1="0%" y2="50.445%">
      <stop offset="0%" stop-opacity="0"/>
      <stop offset="100%" stop-opacity=".372"/>
    </linearGradient>
    <filter id="j" width="133%" height="115.3%" x="-16.5%" y="-7.7%" filterUnits="objectBoundingBox">
      <feGaussianBlur in="SourceGraphic" stdDeviation="1.1"/>
    </filter>
    <linearGradient id="l" x1="-24.308%" y1="-161.748%" y2="17.569%">
      <stop offset="0%" stop-color="#5B79A2"/>
      <stop offset="100%" stop-color="#2E4469"/>
    </linearGradient>
    <circle id="k" cx="24" cy="43.5" r="12.5"/>
    <circle id="n" cx="60" cy="60" r="60"/>
    <linearGradient id="p" x1="67.252%" x2="15.826%" y1="22.034%" y2="163.626%">
      <stop offset="0%" stop-color="#76E1FF"/>
      <stop offset="100%" stop-color="#637BFF" stop-opacity="0"/>
    </linearGradient>
    <linearGradient id="q" x1="50%" x2="50%" y1="0%" y2="97.483%">
      <stop offset="0%" stop-color="#21C8F6"/>
      <stop offset="100%" stop-color="#637BFF"/>
    </linearGradient>
    <filter id="r" width="220%" height="220%" x="-60%" y="-60%" filterUnits="objectBoundingBox">
      <feGaussianBlur in="SourceGraphic" stdDeviation="2"/>
    </filter>
  </defs>
  <g fill="none" fill-rule="evenodd" transform="translate(1 1)">
    <circle cx="60" cy="60" r="60" fill="#000" fill-opacity=".152" fill-rule="nonzero"/>
    <g transform="translate(11 28)">
      <circle cx="75.5" cy="44.5" r="20.5" fill="url(#a)" fill-rule="nonzero" stroke="#2E4469" stroke-width="1.1" opacity=".6"/>
      <ellipse cx="48.5" cy="65" fill="url(#b)" opacity=".298" rx="35.5" ry="9" transform="rotate(1 48.5 65)"/>
      <path fill="#2E4469" fill-rule="nonzero" stroke="url(#c)" stroke-width=".5" d="M7.87 36.694l13.675-26.339c1.679-3.234 5.537-5.315 9.826-5.315h5.379V.25h-5.379c-6.733 0-12.767 3.255-15.375 8.278L2.356 34.8l5.514 1.894z"/>
      <path stroke="url(#d)" stroke-width="1.1" d="M7.993 37L2 34.942l13.774-26.53C18.427 3.303 24.55 0 31.371 0H37v5.29h-5.629c-4.2 0-7.97 2.033-9.605 5.18L7.993 37z"/>
      <path fill="#2E4469" fill-rule="nonzero" stroke="url(#c)" stroke-width=".5" d="M91.13 36.694l5.514-1.894-13.64-26.272C80.396 3.505 74.362.25 67.63.25h-5.38v4.79h5.379c4.29 0 8.147 2.08 9.826 5.315L91.13 36.694z"/>
      <path stroke="url(#e)" stroke-width="1.1" d="M91.007 37L77.233 10.47C75.6 7.323 71.83 5.29 67.63 5.29H62V0h5.629c6.821 0 12.944 3.302 15.597 8.413L97 34.943 91.007 37z"/>
      <path fill="url(#f)" fill-rule="nonzero" d="M60 51h-6.41c0-1.98-1.61-3.59-3.59-3.59-1.98 0-3.59 1.61-3.59 3.59H40c0-5.514 4.486-10 10-10s10 4.486 10 10z"/>
      <circle cx="23.5" cy="44.5" r="20.5" fill="url(#a)" fill-rule="nonzero" stroke="#2E4469" stroke-width="1.1" opacity=".6"/>
      <path fill="#000" fill-rule="nonzero" d="M39.643 30.104c5.763 5.256 8.261 13.544 5.71 21.396-3.484 10.723-15.07 16.57-25.878 13.059a20.598 20.598 0 0 1-13.62-14.47 20.636 20.636 0 0 0 7.55 4.381c10.808 3.512 22.394-2.335 25.878-13.059a20.206 20.206 0 0 0 .36-11.307z" opacity=".085"/>
      <path stroke="url(#g)" stroke-linecap="round" stroke-width="2.2" d="M31.138 56C34.66 53.798 37 49.896 37 45.45 37 38.573 31.404 33 24.5 33S12 38.574 12 45.45" transform="rotate(136 24.5 44.5)"/>
      <path fill="#2E4469" fill-rule="nonzero" stroke="url(#c)" stroke-width=".5" d="M23.5 67.75c12.82 0 23.25-10.43 23.25-23.25S36.32 21.25 23.5 21.25.25 31.68.25 44.5 10.68 67.75 23.5 67.75zm0-40.58c9.556 0 17.33 7.774 17.33 17.33 0 9.556-7.774 17.33-17.33 17.33-9.556 0-17.33-7.774-17.33-17.33 0-9.556 7.774-17.33 17.33-17.33z"/>
      <path stroke="url(#h)" stroke-width="1.1" d="M23.5 68C10.542 68 0 57.458 0 44.5S10.542 21 23.5 21 47 31.542 47 44.5 36.458 68 23.5 68zm0-40.58c-9.417 0-17.08 7.663-17.08 17.08 0 9.417 7.663 17.08 17.08 17.08 9.417 0 17.08-7.663 17.08-17.08 0-9.417-7.663-17.08-17.08-17.08z"/>
      <path fill="#000" fill-rule="nonzero" d="M88.643 30.104c5.763 5.256 8.261 13.544 5.71 21.396-3.484 10.723-15.07 16.57-25.878 13.059a20.598 20.598 0 0 1-13.62-14.47 20.636 20.636 0 0 0 7.55 4.381c10.808 3.512 22.394-2.335 25.878-13.059a20.206 20.206 0 0 0 .36-11.307z" opacity=".085"/>
      <path fill="url(#i)" d="M57 30.788L60.584 26 77 68.116 75.026 69z" filter="url(#j)" opacity=".5"/>
      <path fill="#2E4469" fill-rule="nonzero" stroke="url(#c)" stroke-width=".5" d="M75.5 67.75c12.82 0 23.25-10.43 23.25-23.25S88.32 21.25 75.5 21.25 52.25 31.68 52.25 44.5 62.68 67.75 75.5 67.75zm0-40.58c9.556 0 17.33 7.774 17.33 17.33 0 9.556-7.774 17.33-17.33 17.33-9.556 0-17.33-7.774-17.33-17.33 0-9.556 7.774-17.33 17.33-17.33z"/>
      <path stroke="url(#h)" stroke-width="1.1" d="M75.5 68C62.542 68 52 57.458 52 44.5S62.542 21 75.5 21 99 31.542 99 44.5 88.458 68 75.5 68zm0-40.58c-9.417 0-17.08 7.663-17.08 17.08 0 9.417 7.663 17.08 17.08 17.08 9.417 0 17.08-7.663 17.08-17.08 0-9.417-7.663-17.08-17.08-17.08z"/>
      <mask id="m" fill="#fff">
        <use xlink:href="#k"/>
      </mask>
      <use fill="url(#l)" fill-rule="nonzero" xlink:href="#k"/>
      <path stroke="url(#h)" stroke-width="1.1" d="M23.5 60v-9.101H13.028v-7.702h-8.28v-4.948H-2.5V26" mask="url(#m)"/>
      <path stroke="url(#h)" stroke-width="1.1" d="M46.462 60v-9.101l8.527.375v-8.077H41.5v-4.948h29V26" mask="url(#m)" opacity=".2"/>
      <path stroke="url(#h)" stroke-width="1.1" d="M37.5 61v-9.25l-3.295-.061v-8.21H30V38.45H17.5V26m8 1v34.964" mask="url(#m)" opacity=".9"/>
      <path stroke="url(#h)" stroke-width="1.1" d="M8.5 27v34.964" mask="url(#m)" opacity=".2"/>
    </g>
    <mask id="o" fill="#fff">
      <use xlink:href="#n"/>
    </mask>
    <use stroke="url(#h)" xlink:href="#n"/>
    <g mask="url(#o)">
      <path stroke="url(#p)" stroke-width="2" d="M20.33 79.304L48.553 54.98 32.53 4 8 19.462" transform="translate(37 43)"/>
      <g transform="translate(37 43)">
        <g transform="translate(43 50)">
          <circle cx="4.5" cy="4.5" r="4.5" fill="url(#q)"/>
          <path fill="#FFF" fill-opacity=".2" d="M.029 4.786a4.286 4.286 0 0 1 8.458-1.35 4.31 4.31 0 0 0-.712-.64 4.286 4.286 0 0 0-7.746 1.99z"/>
        </g>
        <circle cx="5" cy="20" r="5" fill="#328AF1" filter="url(#r)"/>
        <g transform="translate(4 16)">
          <circle cx="3" cy="3" r="3" fill="url(#q)"/>
          <path fill="#FFF" fill-opacity=".2" d="M.044 3.357A2.857 2.857 0 0 1 5.315 1.4a2.844 2.844 0 0 0-1.958-.355A2.858 2.858 0 0 0 .044 3.357z"/>
        </g>
        <g transform="translate(28)">
          <circle cx="4" cy="4" r="4" fill="url(#q)"/>
          <path fill="#FFF" fill-opacity=".2" d="M7.311 2.308a3.782 3.782 0 0 0-.874-.257A3.81 3.81 0 0 0 .032 4.31a3.81 3.81 0 0 1 7.279-2.002z"/>
        </g>
      </g>
    </g>
  </g>
</svg>
