<svg xmlns="http://www.w3.org/2000/svg" xmlns:xlink="http://www.w3.org/1999/xlink" width="122" height="124">
  <defs>
    <circle id="a" cx="60" cy="66" r="60"/>
    <linearGradient id="b" x1="88.081%" x2="26.195%" y1="89.849%" y2="4.032%">
      <stop offset="0%" stop-color="#FFE474" stop-opacity=".131"/>
      <stop offset="100%" stop-color="#FFC540"/>
    </linearGradient>
    <circle id="c" cx="60" cy="66" r="60"/>
    <linearGradient id="d" x1="8.332%" y1="50%" y2="68.605%">
      <stop offset="0%" stop-color="#FFE474" stop-opacity=".131"/>
      <stop offset="100%" stop-color="#FFC540"/>
    </linearGradient>
    <linearGradient id="e" x1="0%" y1="50%" y2="50%">
      <stop offset="0%" stop-color="#5B79A2"/>
      <stop offset="100%" stop-color="#2E4469"/>
    </linearGradient>
    <linearGradient id="f" x1="50%" x2="50%" y1="0%" y2="100%">
      <stop offset="0%" stop-color="#5B79A2"/>
      <stop offset="100%" stop-color="#2E4469"/>
    </linearGradient>
    <linearGradient id="g" x1="50%" x2="50%" y1="0%" y2="100%">
      <stop offset="0%" stop-color="#C4D6EB" stop-opacity=".3"/>
      <stop offset="100%" stop-color="#91ACD2" stop-opacity=".3"/>
    </linearGradient>
    <linearGradient id="h" x1="14.645%" x2="85.355%" y1="85.355%" y2="14.645%">
      <stop offset="0%" stop-color="#2F4568"/>
      <stop offset="100%" stop-color="#445D7F"/>
    </linearGradient>
    <linearGradient id="i" x1="50%" x2="244.604%" y1="0%" y2="19.713%">
      <stop offset="0%" stop-color="#8EABCB" stop-opacity="0"/>
      <stop offset="100%" stop-color="#55739B"/>
    </linearGradient>
    <linearGradient id="j" x1="170.812%" x2=".733%" y1="85.566%" y2="50.733%">
      <stop offset="0%" stop-color="#F2A27A"/>
      <stop offset="100%" stop-color="#FFC73C"/>
    </linearGradient>
  </defs>
  <g fill="none" fill-rule="evenodd" transform="translate(1 -3)">
    <use fill="#000" fill-opacity=".152" xlink:href="#a"/>
    <use stroke="url(#b)" stroke-width="2" xlink:href="#c"/>
    <text fill="#FFF" font-family="OpenSans, Open Sans" font-size="18" opacity=".585" style="mix-blend-mode:soft-light">
      <tspan x="32.411" y="64">design</tspan> <tspan x="40.884" y="88">here</tspan>
    </text>
    <path stroke="url(#d)" stroke-width="2" d="M77.203 79.99l3.272 29.549L94.79 94.764l10.89 8.595"/>
    <circle cx="80.5" cy="109.5" r="2.5" fill="#E3B156"/>
    <path fill="#FFF" fill-opacity=".1" d="M78.889 111A2.222 2.222 0 1 1 82 107.889 2.222 2.222 0 0 0 78.889 111z"/>
    <circle cx="94.5" cy="95.5" r="3.5" fill="#FAC446"/>
    <path fill="#FFF" fill-opacity=".2" d="M92.333 98A3.333 3.333 0 1 1 97 93.333 3.333 3.333 0 0 0 92.333 98z"/>
    <rect width="79.765" height="79.765" x="21.618" y="16.618" fill="url(#e)" rx="8" transform="rotate(45 61.5 56.5)"/>
    <rect width="73.118" height="73.118" x="24.387" y="19.387" fill="url(#f)" rx="6" transform="rotate(45 60.946 55.946)"/>
    <rect width="20.951" height="13.094" x="18.889" y="52.16" fill="#2E4469" stroke="url(#g)" stroke-width=".2" opacity=".5" rx="2" transform="rotate(45 29.364 58.708)"/>
    <path fill="#2E4469" stroke="url(#g)" stroke-width=".2" d="M34.073 54.157l-9.26 9.259L30.8 69.4a1.9 1.9 0 0 0 2.687 0l6.572-6.572a1.9 1.9 0 0 0 0-2.687l-5.985-5.985zm11.735 11.735a2.116 2.116 0 0 0-2.992 0L36.55 72.16a2.116 2.116 0 0 0 0 2.992l22.504 22.504a2.116 2.116 0 0 0 2.992 0l6.267-6.267a2.116 2.116 0 0 0 0-2.992L45.808 65.892z" opacity=".5"/>
    <path stroke="#55739B" d="M56.317 53L44 41.505l22-10.711-9.184-7.82L62.27 7"/>
    <circle cx="45" cy="42" r="3" fill="#5173AB"/>
    <path fill="#FFF" fill-opacity=".1" d="M43.2 44.4a3 3 0 1 1 4.2-4.2 3 3 0 0 0-4.2 4.2z"/>
    <circle cx="64.5" cy="30.5" r="1.5" fill="#5371A5"/>
    <path fill="#FFF" fill-opacity=".05" d="M63.6 31.7a1.5 1.5 0 1 1 2.1-2.1 1.5 1.5 0 0 0-2.1 2.1z"/>
    <path fill="url(#h)" stroke="url(#e)" stroke-width=".6" d="M78.881 32.854a1.892 1.892 0 0 0-2.676 0l-26.35 26.351a1.892 1.892 0 0 0 0 2.676l22.264 22.265a1.892 1.892 0 0 0 2.676 0l26.35-26.351a1.892 1.892 0 0 0 0-2.676L78.882 32.854z" opacity=".5"/>
    <path fill="#5173AB" d="M60.368 58.781c-.644-.621-1.138-1.232-1.484-1.832l2.343-2.425c.37.599.756 1.094 1.16 1.484.626.604 1.266.838 1.92.7.654-.137 1.39-.629 2.207-1.475L78.95 42.354l2.851 2.754-12.419 12.86c-1.549 1.604-3.088 2.48-4.616 2.627-1.529.147-2.995-.458-4.4-1.814zm23.17 7.188c-1.198 1.24-2.58 1.796-4.143 1.667-1.564-.13-3.124-.946-4.682-2.45-1.435-1.386-2.438-2.887-3.009-4.505l2.615-2.707c.508 1.29.994 2.323 1.46 3.1.465.775.958 1.415 1.479 1.918.625.604 1.223.946 1.794 1.024.57.078 1.088-.124 1.554-.606.26-.27.418-.58.474-.933.055-.352.034-.763-.063-1.232-.098-.47-.38-1.341-.845-2.614-.44-1.188-.69-2.163-.75-2.923-.06-.76.02-1.5.242-2.22.22-.719.642-1.401 1.266-2.047 1.174-1.216 2.5-1.782 3.978-1.7 1.478.084 2.929.812 4.351 2.186a10.751 10.751 0 0 1 1.756 2.186c.47.782.905 1.661 1.3 2.637l-3.107 1.378c-.427-.994-.817-1.777-1.171-2.349a7.801 7.801 0 0 0-1.212-1.515c-.54-.521-1.078-.793-1.614-.814-.536-.021-1.004.175-1.404.588a1.76 1.76 0 0 0-.474.841c-.068.304-.061.668.02 1.092.083.425.375 1.328.878 2.71.664 1.827.93 3.275.8 4.342-.13 1.068-.627 2.05-1.493 2.946z"/>
    <rect width="7" height="2" x="52" y="51.5" fill="#5173AB" rx="1" transform="rotate(134 55.5 52.5)"/>
    <path stroke="#55739B" d="M60.5 72.5l-4 4m-17-7l-3-3" opacity=".15"/>
    <path stroke="url(#i)" d="M62.643 102L107 55.942 62 12"/>
    <path stroke="url(#d)" stroke-width="2" d="M32.457 86.726l-4.463 16.22-14.037-14.539-7.1 4.588"/>
    <circle cx="28.5" cy="103.5" r="3.5" fill="#FAC446"/>
    <path fill="#FFF" fill-opacity=".2" d="M26.333 106A3.333 3.333 0 1 1 31 101.333 3.333 3.333 0 0 0 26.333 106z"/>
    <circle cx="14" cy="88.5" r="2.5" fill="#E3B156"/>
    <path fill="#FFF" fill-opacity=".1" d="M12.389 90a2.222 2.222 0 1 1 3.111-3.111A2.222 2.222 0 0 0 12.389 90z"/>
    <rect width="14.399" height="5" x="26" y="84" fill="url(#j)" rx="2" transform="rotate(45 33.2 86.5)"/>
  </g>
</svg>
