<svg width="122" height="122" xmlns="http://www.w3.org/2000/svg" xmlns:xlink="http://www.w3.org/1999/xlink"><defs><circle id="a" cx="60" cy="60" r="60"/><linearGradient x1="14.496%" y1="11.24%" x2="84.643%" y2="89.769%" id="c"><stop stop-color="#B595FD" offset="0%"/><stop stop-color="#B372BD" stop-opacity="0" offset="100%"/></linearGradient><circle id="b" cx="60" cy="60" r="60"/><radialGradient cx="52.436%" cy="42.955%" fx="52.436%" fy="42.955%" r="208.085%" gradientTransform="matrix(-.17355 0 0 -.21136 .615 .52)" id="d"><stop stop-color="#3F237F" offset="0%"/><stop stop-opacity="0" offset="100%"/></radialGradient><linearGradient x1="-24.308%" y1="-161.748%" y2="17.569%" id="f"><stop stop-color="#5B79A2" offset="0%"/><stop stop-color="#2E4469" offset="100%"/></linearGradient><linearGradient x1="59.067%" y1="40.611%" x2="-10.769%" y2="100%" id="g"><stop stop-color="#B595FD" offset="0%"/><stop stop-color="#B372BD" stop-opacity="0" offset="100%"/></linearGradient><linearGradient x1="50%" y1="100%" x2="50%" y2="0%" id="h"><stop stop-color="#8B60ED" offset="0%"/><stop stop-color="#B372BD" offset="100%"/></linearGradient><linearGradient x1="50%" y1="100%" x2="50%" y2="0%" id="i"><stop stop-color="#7551C8" offset="0%"/><stop stop-color="#A859B4" offset="100%"/></linearGradient><linearGradient x1="58.037%" y1="316.497%" x2="50%" y2="0%" id="j"><stop stop-color="#5B79A2" offset="0%"/><stop stop-color="#2E4469" offset="100%"/></linearGradient><linearGradient x1="4.47%" y1="0%" x2="117.825%" y2="133.334%" id="k"><stop stop-color="#5B79A2" offset="0%"/><stop stop-color="#2E4469" offset="100%"/></linearGradient><linearGradient x1="50%" y1="0%" x2="50%" y2="50.445%" id="l"><stop stop-opacity="0" offset="0%"/><stop stop-opacity=".372" offset="100%"/></linearGradient><filter x="-20.6%" y="-11.2%" width="135.3%" height="122.5%" filterUnits="objectBoundingBox" id="m"><feGaussianBlur stdDeviation="1" in="SourceGraphic"/></filter><linearGradient x1="12.205%" y1="0%" x2="108.596%" y2="100%" id="n"><stop stop-color="#80A4D5" offset="0%"/><stop stop-color="#2E4469" offset="100%"/></linearGradient><filter x="-42.9%" y="-42.9%" width="185.7%" height="185.7%" filterUnits="objectBoundingBox" id="o"><feGaussianBlur stdDeviation="2" in="SourceGraphic"/></filter><linearGradient x1="43.229%" y1="26.717%" x2="-16.174%" y2="100%" id="p"><stop stop-color="#B595FD" offset="0%"/><stop stop-color="#B372BD" stop-opacity="0" offset="100%"/></linearGradient><linearGradient x1="68.141%" y1="100%" x2="50%" y2="0%" id="q"><stop stop-color="#9A77EB" offset="0%"/><stop stop-color="#CB7DD7" offset="100%"/></linearGradient><linearGradient x1="50%" y1="100%" x2="50%" y2="0%" id="r"><stop stop-color="#A987F7" offset="0%"/><stop stop-color="#B372BD" offset="100%"/></linearGradient></defs><g transform="translate(1 1)" fill="none" fill-rule="evenodd"><use fill-opacity=".152" fill="#000" xlink:href="#a"/><mask id="e" fill="#fff"><use xlink:href="#b"/></mask><use stroke="url(#c)" stroke-width="2" xlink:href="#b"/><ellipse fill="url(#d)" opacity=".523" mask="url(#e)" cx="55.5" cy="107.5" rx="60.5" ry="10.5"/><path d="M64.927 11H54.073C52.376 11 51 12.388 51 14.1V38h17V14.1c0-1.712-1.376-3.1-3.073-3.1z" stroke="#2E4469" fill="url(#f)" fill-rule="nonzero" mask="url(#e)"/><g mask="url(#e)"><g transform="translate(67 13)"><path stroke="url(#g)" stroke-width="2" transform="matrix(-1 0 0 1 51.743 0)" d="M50.763 5.058H32.798L16.576 59.033.98 52.173"/><circle fill="url(#h)" cx="18.5" cy="5.5" r="4.5"/><path d="M15.778 9A4.444 4.444 0 1 1 22 2.778 4.444 4.444 0 0 0 15.778 9z" fill-opacity=".2" fill="#FFF"/><circle fill="url(#i)" cx="35.5" cy="59" r="3"/><path d="M33.611 61a2.778 2.778 0 1 1 3.889-3.889A2.778 2.778 0 0 0 33.611 61z" fill-opacity=".2" fill="#FFF"/><rect fill="url(#h)" transform="matrix(-1 0 0 1 6 0)" x="1" width="4" height="9" rx="2"/></g></g><path d="M64.927 21H54.073C52.376 21 51 21.874 51 22.952V38h17V22.952C68 21.874 66.624 21 64.927 21z" fill="url(#j)" fill-rule="nonzero" opacity=".426" mask="url(#e)" transform="rotate(-180 59.5 29.5)"/><path d="M67.486 13.298a3.047 3.047 0 0 0-2.059-.798H54.573c-1.697 0-3.073 1.388-3.073 3.1v21.9h-1V13.6c0-1.712 1.376-3.1 3.073-3.1h10.854c1.596 0 2.908 1.228 3.059 2.798z" fill="#FFF" fill-rule="nonzero" opacity=".1" mask="url(#e)"/><path fill="url(#k)" fill-rule="nonzero" mask="url(#e)" d="M48 32h24v18H48z"/><circle fill="url(#k)" fill-rule="nonzero" mask="url(#e)" cx="59.5" cy="75.5" r="33.5"/><path fill="url(#l)" opacity=".72" filter="url(#m)" mask="url(#e)" d="M33.5 47.357L35.592 47l14.893 25.879-1.772.796z"/><path d="M36.317 99.683C29.96 93.586 26 85.005 26 75.5 26 56.998 40.998 42 59.5 42c9.505 0 18.086 3.959 24.183 10.317C77.665 46.547 69.496 43 60.5 43 41.998 43 27 57.998 27 76.5c0 8.996 3.546 17.165 9.317 23.183z" fill="url(#n)" fill-rule="nonzero" mask="url(#e)"/><path d="M34.93 61A28.43 28.43 0 0 0 31 75.464C31 91.224 43.76 104 59.5 104S88 91.224 88 75.464c0-5.28-1.433-10.223-3.93-14.464-2.34-1.889-7.784-2.189-16.333-.9-5.99.904-12.733 3.382-17.258 4.114-5.961.964-11.145-.107-15.55-3.214z" stroke="#2E4469" fill="url(#f)" fill-rule="nonzero" mask="url(#e)"/><path fill="url(#j)" fill-rule="nonzero" mask="url(#e)" d="M48 32h24v6H48z"/><path d="M74.775 23h-29.55C42.34 23 40 25.238 40 28s2.34 5 5.225 5h29.55C77.66 33 80 30.762 80 28c0-2.761-2.34-5-5.225-5z" fill="url(#k)" fill-rule="nonzero" mask="url(#e)"/><circle stroke="#2E4469" fill="url(#h)" fill-rule="nonzero" mask="url(#e)" cx="46.5" cy="85.5" r="6.5"/><circle stroke="#2E4469" fill="url(#h)" fill-rule="nonzero" mask="url(#e)" cx="55" cy="96" r="3"/><path d="M79.014 25.077A5.352 5.352 0 0 0 75.774 24H46.226C43.34 24 41 26.238 41 29c0 1.091.365 2.101.986 2.923C40.776 31.008 40 29.591 40 28c0-2.762 2.34-5 5.225-5h29.55c1.745 0 3.29.819 4.24 2.077z" fill="url(#n)" fill-rule="nonzero" mask="url(#e)"/><circle fill="#BC5AEC" filter="url(#o)" mask="url(#e)" cx="53.917" cy="70.917" r="7"/><path stroke="url(#p)" stroke-width="2" mask="url(#e)" d="M55 71.667L34.003 41.09l-19.9 10.253L8.04 77.186"/><circle fill="url(#q)" mask="url(#e)" cx="34.949" cy="41.84" r="3.5"/><path d="M32.782 44.34a3.333 3.333 0 1 1 4.667-4.667 3.333 3.333 0 0 0-4.667 4.667z" fill-opacity=".2" fill="#FFF" mask="url(#e)"/><circle fill="url(#r)" mask="url(#e)" cx="55.246" cy="70.798" r="4.5"/><path d="M52.523 74.298a4.444 4.444 0 1 1 6.222-6.222 4.444 4.444 0 0 0-6.222 6.222z" fill-opacity=".2" fill="#FFF" mask="url(#e)"/><circle fill="url(#q)" mask="url(#e)" cx="13.463" cy="50.079" r="2.5"/><path d="M11.852 51.58a2.222 2.222 0 1 1 3.111-3.111 2.222 2.222 0 0 0-3.111 3.111z" fill-opacity=".2" fill="#FFF" mask="url(#e)"/></g></svg>